<svg viewBox="0 0 172 185" fill="none" xmlns="http://www.w3.org/2000/svg">
<g style="mix-blend-mode:soft-light" opacity="0.6">
<path d="M0 85.6202C0 67.7179 7.11278 50.5488 19.7736 37.8899C32.4345 25.2311 49.6062 18.1194 67.5113 18.1194C76.3778 18.1167 85.1579 19.8608 93.35 23.2521C101.542 26.6434 108.986 31.6153 115.255 37.8839C121.525 44.1525 126.497 51.5948 129.889 59.7856C133.281 67.9764 135.025 76.7551 135.023 85.6202C135.025 94.4853 133.281 103.264 129.889 111.455C126.497 119.646 121.525 127.088 115.255 133.357C108.986 139.625 101.542 144.597 93.35 147.988C85.1579 151.38 76.3778 153.124 67.5113 153.121C49.6062 153.121 32.4345 146.009 19.7736 133.351C7.11278 120.692 0 103.523 0 85.6202H0ZM2.87983 85.6202C2.9016 102.752 9.71796 119.176 21.834 131.29C33.9501 143.405 50.3767 150.22 67.5113 150.242C84.646 150.22 101.073 143.405 113.189 131.29C125.305 119.176 132.121 102.752 132.143 85.6202C132.121 68.4882 125.305 52.0642 113.189 39.95C101.073 27.8358 84.646 21.0205 67.5113 20.9988C50.3767 21.0205 33.9501 27.8358 21.834 39.95C9.71796 52.0642 2.9016 68.4882 2.87983 85.6202Z" fill="none"/>
</g>
<path d="M164.732 100.465C169.386 56.6976 137.679 17.4445 93.912 12.7903C50.145 8.13614 10.8918 39.8434 6.23767 83.6104C1.5835 127.377 33.2907 166.631 77.0578 171.285C120.825 175.939 160.078 144.232 164.732 100.465Z" fill="#F6F8FA"/>
<path d="M54.7335 165.296L88.6685 144.497L65.312 50.355L6.56787 98.6352C6.56787 98.87 6.56787 99.1261 6.56787 99.3609C6.56678 112.443 10.4081 125.241 17.619 136.178C24.8299 147.115 42.6765 160.093 54.7335 165.296Z" fill="#E3E8EF"/>
<path d="M89.6037 150.962L94.8697 163.816L108.137 172.043C108.137 172.043 112.745 175.498 101.082 174.223C97.2087 173.638 93.2943 173.369 89.3775 173.421C88.1433 173.277 85.9834 171.899 85.7983 167.436C85.6543 163.59 78.5781 150.982 78.5781 150.982L89.6037 150.962Z" fill="#865029"/>
<path d="M104.681 175.333C96.5971 173.955 92.3391 176.197 88.6776 175.148C85.592 174.264 85.8389 171.899 85.5098 167.107C85.5098 166.572 96.8234 167.292 105.072 169.945C105.072 169.945 118.134 177.616 104.681 175.333Z" fill="#282828"/>
<path d="M73.5997 88.4378V91.0498C73.5997 91.0498 84.2551 119.844 85.7773 125.438C87.2995 131.032 95.5276 157.707 96.5355 161.307C97.5434 164.906 84.1934 163.363 82.1364 163.363C78.6562 152.71 74.5346 142.277 69.7943 132.122C67.7372 128.543 56.4854 108.573 56.4854 108.573L61.0931 85.9492L73.5997 88.4378Z" fill="#3F3F6B"/>
<path d="M40.626 165.544C40.1323 170.768 38.6718 175.025 38.0753 179.941C37.3759 185.761 54.7165 184.362 58.6454 184.897C62.5743 185.432 62.1424 181.298 55.4571 178.727C45.5834 175.046 47.1056 168.238 47.1056 168.238L40.626 165.544Z" fill="#9D5F32"/>
<path d="M58.4605 184.938C62.0397 185.453 62.9653 181.648 56.4034 179.282C54.223 180.887 48.9159 179.879 46.2623 179.282C42.9094 178.501 41.1198 176.938 38.4251 176.732C38.3222 177.781 38.0548 178.789 37.9931 179.961C37.6434 185.802 54.6344 184.383 58.4605 184.938Z" fill="#282828"/>
<path d="M72.6948 87.1832C71.6251 91.2966 63.2325 127.597 61.1755 133.027C59.1185 138.457 50.2527 171.282 49.5739 173.667C44.6988 172.927 37.6021 170.932 37.6021 170.932C37.6021 170.932 39.6591 151.558 43.0737 132.677C45.1237 120.597 46.3811 108.395 46.8381 96.1504C47.1055 61.4745 64.9398 84.1599 64.9398 84.1599L72.6948 87.1832Z" fill="#4C4C78"/>
<path d="M61.2373 132.965C63.2943 127.536 71.6869 91.2762 72.7566 87.1216L65.0016 84.0983L64.6108 83.6252L44.8223 172.763C46.4473 173.133 48.1341 173.482 49.6357 173.709C50.3145 171.22 59.2008 138.395 61.2373 132.965Z" fill="#3F3F6B"/>
<path d="M74.67 25.8322C73.5998 27.0662 72.8519 28.546 72.4929 30.1394C72.134 31.7328 72.1752 33.3903 72.613 34.9639C73.3946 37.3908 72.613 37.9872 68.4989 36.5887C66.4558 35.6332 64.2991 34.942 62.0811 34.532C63.3358 32.6398 64.3849 24.2485 62.5747 19.1068C60.7646 13.965 74.67 25.8322 74.67 25.8322Z" fill="#9D5F32"/>
<path d="M62.5948 18.6544C61.5457 15.7544 72.7564 22.1508 76.459 24.8245L67.0996 35.5399C65.5214 34.775 63.8359 34.2549 62.1011 33.9973C63.3764 32.1875 64.4255 23.755 62.5948 18.6544Z" fill="#865029"/>
<path d="M74.3269 0.0428656C81.177 0.515275 84.539 6.08149 83.9297 14.4205C83.8048 16.3403 83.4666 18.2412 82.9211 20.0895C83.0681 20.6235 83.2572 21.1986 83.4884 21.8353C83.7195 22.472 82.7529 22.698 81.9124 22.8212C80.0423 26.7648 76.9535 29.2296 72.6669 28.9831C65.8378 28.5107 60.4376 19.8224 61.047 11.4012C61.6563 2.98002 67.5188 -0.429544 74.3269 0.0428656Z" fill="#9D5F32"/>
<path d="M72.757 29.308C73.4442 29.3634 74.8217 28.6237 75.5 28.5C68.9793 25.6412 71.6873 9.66656 73.3535 6.72548C72.325 6.27301 75.5751 0.411417 74.3203 0.308582C67.6144 -0.164459 61.9782 3.27023 61.32 11.6821C60.6617 20.094 66.0717 28.7939 72.757 29.308Z" fill="#865029"/>
<path d="M83.5558 7.1984C83.926 5.14171 80.8405 -0.34968 71.2137 0.0205259C68.2951 -0.119424 65.4198 0.768497 63.0885 2.5297C60.4584 4.30336 58.4115 6.81499 57.2054 9.74871C53.8319 20.1762 52.3302 37.0205 48.1134 33.2156C49.3887 36.095 50.6024 34.1206 51.5074 33.2156C50.9315 34.1617 49.8001 37.1439 47.3934 33.2156C47.1877 34.7582 48.2779 37.0617 50.5818 36.5269C49.9066 36.7697 49.1716 36.7909 48.4836 36.5875C47.7955 36.3841 47.1903 35.9666 46.7557 35.3957C45.6244 34.3057 47.7431 37.0822 50.2732 38.1517C48.8638 37.7977 47.5681 37.0898 46.5089 36.095C45.9741 35.3752 46.1592 40.4141 53.5439 40.9077C55.3129 41.0105 55.4158 39.8588 56.794 39.2006C54.737 40.3524 55.1689 41.5247 49.2447 40.7637C58.419 45.1034 63.7467 30.4802 68.9715 20.7109C69.5269 20.0116 69.7943 19.3535 69.4446 18.8805C68.6218 17.7493 67.3876 13.6976 69.2801 13.5536C70.0045 13.5611 70.7141 13.7598 71.3371 14.1295L74.7312 11.2501C78.2929 12.0332 81.8995 12.5965 85.5305 12.9366C85.8382 12.4433 86.032 11.8875 86.0976 11.3098C86.1632 10.7321 86.0991 10.1471 85.9099 9.59728C85.7207 9.04751 85.4112 8.54688 85.004 8.13188C84.5967 7.71688 84.1019 7.39797 83.5558 7.1984Z" fill="#300901"/>
<path d="M72.7362 35.8483C75.3166 42.1138 77.3805 48.5796 78.9072 55.1813C79.5655 59.0479 77.8376 65.1974 74.7932 72.9306C71.7488 80.6638 74.4641 90.7622 73.1682 90.7622C71.8722 90.7622 46.6326 87.6154 46.7972 86.6488C47.8257 80.7666 52.4746 74.8639 52.6803 70.771C52.886 66.6782 51.8369 49.9778 54.6344 43.1907C57.432 36.4036 62.1631 32.7221 62.8625 33.154C65.8241 34.9874 69.2537 35.9233 72.7362 35.8483Z" fill="#CBCDDA"/>
<path d="M74.4844 76.3446C77.5699 65.0739 79.5858 59.0478 78.9276 55.1812C77.4232 48.5855 75.394 42.1206 72.8594 35.8482C71.0926 35.7827 69.3362 35.5486 67.614 35.1489C65.6284 36.0324 63.904 37.4125 62.6069 39.156C61.3098 40.8996 60.4839 42.9479 60.2087 45.1033C59.859 49.7926 63.1914 61.5569 61.2372 69.3518C60.0853 73.6298 57.3289 81.0339 55.7861 88.4585C62.1217 90.9266 72.3657 90.7621 73.2091 90.7621C74.505 90.7621 72.304 84.3246 74.4844 76.3446Z" fill="#BABCC8"/>
<path d="M69.3624 13.636C69.9575 13.6437 70.5425 13.7917 71.0697 14.0679C70.6951 9.41432 70.9442 4.73159 71.8102 0.144012H71.2137C68.2964 0.0144814 65.4246 0.901336 63.0885 2.65318C60.4584 4.42684 58.4115 6.93847 57.2054 9.8722C53.8319 20.2997 52.3302 37.2057 48.1134 33.3391C49.3887 36.2185 50.6024 34.2441 51.5074 33.3391C50.9315 34.2852 49.8001 37.2674 47.3934 33.3391C47.1877 34.8816 48.2779 37.1852 50.5818 36.6504C49.9066 36.8932 49.1716 36.9144 48.4836 36.711C47.7955 36.5075 47.1903 36.0901 46.7557 35.5192C45.6244 34.4292 47.7431 37.2057 50.2732 38.2752C48.85 37.8996 47.5514 37.1546 46.5089 36.1157C45.9741 35.4164 46.1592 40.4347 53.5439 40.9283H53.7702C52.2625 41.0962 50.7386 41.0477 49.2447 40.7844C58.419 45.124 63.7467 30.5009 68.9715 20.7316C69.5269 20.0323 69.7943 19.3741 69.4446 18.9011C68.7041 17.8522 67.4905 13.7799 69.3624 13.636ZM56.8763 39.3036C56.5516 39.4916 56.2421 39.7048 55.9506 39.9411C56.219 39.6755 56.5324 39.4596 56.8763 39.3036Z" fill="#300901"/>
<path d="M67.8816 40.6609C65.1869 37.0205 59.6536 39.8176 59.3861 43.3963C59.1187 46.975 67.4908 71.5731 70.0621 74.6376C72.6333 77.702 86.8679 95.9861 89.4392 98.5364C92.0104 101.087 92.6893 95.6364 92.6893 95.6364C92.6893 95.6364 77.4673 71.2851 76.1097 64.5597C71.6871 44.1573 67.8816 40.6609 67.8816 40.6609Z" fill="#9D5F32"/>
<path d="M162.731 142.55C162.731 136.38 161.887 143.414 164.417 138.128C164.417 138.128 166.084 142.241 164.561 144.833C163.039 147.424 162.731 142.55 162.731 142.55Z" fill="#BABCC8"/>
<path d="M127.74 158.674C128.748 159.332 125.498 169.102 125.457 169.78C125.432 170.738 125.624 171.689 126.02 172.562C126.415 173.435 127.003 174.207 127.74 174.819C129.378 176.192 131.305 177.177 133.377 177.699C134.59 177.863 133.685 178.912 130.168 178.912C126.65 178.912 122.269 172.989 121.816 171.323C121.364 169.657 123.174 164.309 122.104 163.857C119.819 162.111 117.642 160.23 115.583 158.222C117.405 157.022 119.555 156.42 121.734 156.501C123.914 156.583 126.014 157.342 127.74 158.674Z" fill="#BABCC8"/>
<path d="M141.441 162.479C137.553 169.534 135.043 169.246 135.496 175.251C135.666 176.664 136.025 178.048 136.566 179.365C136.566 179.365 139.692 178.583 139.919 180.578C140.068 181.278 139.958 182.009 139.61 182.635L134.899 182.491C134.899 182.491 132.616 176.321 132.452 175.189C132.287 174.058 135.208 161.183 135.208 161.183L141.441 162.479Z" fill="#BABCC8"/>
<path d="M156.251 149.234L155.634 150.283C154.379 149.46 92.6888 100.634 90.1792 99.7912L90.5083 98.7217C93.6761 99.894 155.222 148.741 156.189 149.296L156.251 149.234Z" fill="#1BC98E"/>
<path d="M171.823 152.422C170.198 150.365 168.161 150.365 167.359 147.959C166.557 145.553 163.245 141.48 160.056 141.48C156.868 141.48 155.181 143.537 153.556 144.73C151.931 145.923 146.665 143.907 145.04 143.496C143.415 143.084 123.935 140.267 116.242 144.318C110.544 145.943 107.191 146.375 105.833 143.599C102.933 137.429 105.689 132.143 110.955 135.372C111.367 131.711 104.023 129.757 102.439 136.585C100.382 145.553 106.903 150.777 109.33 150.777C108.919 153.224 104.064 162.952 102.851 165.79C101.637 168.629 98.387 170.706 97.9756 172.763C97.5642 174.819 95.9186 183.334 97.9756 183.725C100.033 184.116 104.867 184.548 104.867 183.334C104.867 182.121 100.341 181.73 100.403 179.673C100.67 171.652 107.088 170.5 108.631 168.464C110.174 166.428 114.802 165.688 119.739 159.332C121.96 156.412 127.967 160.608 132.76 163.034C136.09 164.574 139.659 165.534 143.312 165.873L146.254 169.472C150.014 172.703 154.078 175.561 158.39 178.007C162.854 180.064 165.939 178.377 161.064 175.539C157.13 173.042 153.652 169.891 150.779 166.222C149.566 164.598 151.602 156.885 153.227 155.671C154.852 154.458 156.066 152.381 160.509 154.417C164.952 156.453 166.968 157.255 169.19 155.918C172.481 153.944 171.823 152.422 171.823 152.422Z" fill="#CBCDDA"/>
<path d="M161.065 143.455C160.159 141.624 161.682 137.511 161.229 136.914C160.777 136.318 154.667 143.084 155.593 144.216C156.519 145.347 161.065 143.455 161.065 143.455Z" fill="#CBCDDA"/>
<path d="M90.118 91.7903C92.9361 93.5796 95.5074 97.9604 96.7827 99.4823C98.0581 101.004 98.3049 104.336 98.3049 106.907C98.3049 109.478 94.7257 108.696 92.6893 106.146C90.3924 102.298 88.4178 98.2671 86.7856 94.0938L90.118 91.7903Z" fill="#9D5F32"/>
</svg>
