<svg viewBox="0 0 191 170" fill="none" xmlns="http://www.w3.org/2000/svg">
<path d="M152.485 97.0032C156.737 57.0214 127.772 21.1631 87.79 16.9114C47.8082 12.6598 11.9499 41.6248 7.69829 81.6066C3.44664 121.588 32.4116 157.447 72.3934 161.698C112.375 165.95 148.233 136.985 152.485 97.0032Z" fill="#F6F8FA"/>
<path d="M57.5169 161.117L98.9557 126.372L86.494 32.6545L7.50781 98.6925C8.8368 112.844 14.2808 126.297 23.1679 137.391C32.0549 148.484 43.996 156.732 57.5169 161.117Z" fill="#E3E8EF"/>
<g style="mix-blend-mode:soft-light" opacity="0.6">
<path d="M3.91797 92.0913C3.91493 82.1072 5.87918 72.2204 9.69853 62.9957C13.5179 53.771 19.1174 45.3892 26.1773 38.3294C33.2371 31.2696 41.6189 25.67 50.8435 21.8507C60.0682 18.0313 69.9551 16.067 79.9392 16.0701C89.9253 16.064 99.8146 18.026 109.042 21.844C118.269 25.662 126.654 31.2611 133.716 38.3212C140.778 45.3813 146.38 53.7641 150.201 62.9903C154.022 72.2165 155.987 82.1053 155.984 92.0913C155.987 102.075 154.022 111.962 150.203 121.187C146.384 130.412 140.784 138.793 133.724 145.853C126.664 152.913 118.283 158.513 109.058 162.332C99.8334 166.151 89.9465 168.116 79.9624 168.113C69.9782 168.116 60.0914 166.151 50.8667 162.332C41.642 158.513 33.2603 152.913 26.2004 145.853C19.1406 138.793 13.541 130.412 9.72168 121.187C5.90233 111.962 3.93808 102.075 3.94112 92.0913H3.91797ZM7.16079 92.0913C7.18529 111.388 14.8601 129.888 28.5028 143.535C42.1454 157.182 60.6426 164.862 79.9392 164.893C99.2358 164.862 117.733 157.182 131.376 143.535C145.018 129.888 152.693 111.388 152.718 92.0913C152.693 72.7968 145.018 54.2996 131.374 40.6563C117.731 27.013 99.2337 19.3374 79.9392 19.3129C60.6447 19.3374 42.1475 27.013 28.5042 40.6563C14.8609 54.2996 7.18531 72.7968 7.16079 92.0913Z" fill="none"/>
</g>
<path d="M113.073 142C112.778 147.294 111.529 151.614 111.137 156.621C110.699 162.5 128.025 160.305 131.887 160.702C135.748 161.1 135.2 156.911 128.415 154.725C118.365 151.452 119.597 144.576 119.597 144.576L113.073 142Z" fill="#F7AB98"/>
<path d="M44.2678 134.132L30.7405 137.537L18.6262 147.59C18.6262 147.59 12.6038 152.524 17.3291 141.706C21.7301 131.654 21.5448 132.163 21.9617 130.681C22.3787 129.198 23.9537 127.507 28.4011 127.971C32.2693 128.365 45.7965 123.153 45.7965 123.153L44.2678 134.132Z" fill="#FBC6B6"/>
<path d="M16.2643 143.351C18.8123 135.522 18.7891 133.345 20.3874 129.731C21.6845 126.789 24.024 127.415 28.8419 127.739C29.3515 127.739 25.6222 137.305 21.7772 145.111C21.7772 145.111 12.0487 156.322 16.2643 143.351Z" fill="#282828"/>
<path d="M97.6623 90.7822C100.748 93.304 120.482 108.172 122.489 115.054C124.496 121.936 122.699 148.65 122.46 150.228C122.221 151.805 111.666 150.073 111.666 150.073C111.666 150.073 109.508 126.124 108.749 124.224C105.601 116.3 88.9024 114.877 83.192 110.81C80.2086 108.886 77.5483 106.502 75.3099 103.747L84.5918 84.0184L97.6623 90.7822Z" fill="#3F3F6B"/>
<path d="M93.2119 98.8087C91.1504 102.631 79.314 126.813 72.3651 130.38C65.4162 133.947 36.4623 137.537 34.7251 137.607C32.9879 137.676 32.6636 126.025 32.6636 126.025C32.6636 126.025 57.8419 118.775 59.7181 117.571C67.5472 112.568 65.6247 94.4077 68.798 87.4588C70.2405 83.8697 72.2419 80.5316 74.7278 77.5681L97.7519 83.4284L93.2119 98.8087Z" fill="#4C4C78"/>
<path d="M98.4007 25.9607C97.2862 27.1961 96.5038 28.6945 96.127 30.3151C95.7502 31.9357 95.7914 33.6255 96.2465 35.2259C97.0109 37.6812 96.2465 38.2603 92.1698 36.8705C90.12 35.9117 87.956 35.2189 85.7305 34.809C87.0044 32.9096 88.0468 24.4319 86.2169 19.2897C84.387 14.1475 98.4007 25.9607 98.4007 25.9607Z" fill="#F79B83"/>
<path d="M86.2624 18.7568C85.2201 15.8383 96.4773 22.2545 100.16 25.034L90.895 35.8049C89.306 35.0407 87.6119 34.5176 85.8687 34.2529C87.05 32.3536 88.0923 23.8759 86.2624 18.7568Z" fill="#F7AB98"/>
<path d="M85.1966 11.7383C84.5944 20.1929 89.8292 28.9485 96.6392 29.4349C103.449 29.9214 107.109 23.2967 107.711 14.8422C108.313 6.38767 105.024 0.782205 98.2606 0.318943C91.497 -0.144319 85.822 3.26065 85.1966 11.7383Z" fill="#FBC6B6"/>
<path d="M106.276 13.9849C106.6 15.9537 105.511 17.2045 107.272 22.3004C107.272 23.6439 103.797 23.3428 103.126 23.4354C102.454 23.5281 106.276 13.9849 106.276 13.9849Z" fill="#FBC6B6"/>
<path d="M96.4764 29.4583C97.1844 29.5402 97.8994 29.5402 98.6074 29.4583C92.0523 26.5629 95.4804 9.81597 97.125 6.85109C96.1058 6.411 99.4413 0.504408 98.0978 0.411756C91.3805 -0.074669 85.6592 3.37663 85.0338 11.8543C84.4084 20.332 89.736 28.9255 96.4764 29.4583Z" fill="#F7AB98"/>
<path d="M107.342 7.24449C107.712 5.2293 104.608 -0.353006 94.9494 0.0176032C92.0211 -0.111051 89.1391 0.781397 86.796 2.54238C84.1457 4.3293 82.0827 6.8597 80.8663 9.81559C75.2608 17.2741 66.9684 24.7789 62.799 20.8875C63.2047 21.8631 63.9213 22.6774 64.8374 23.2039C63.2567 22.8663 61.7844 22.1421 60.5522 21.096C60.592 22.2341 60.9351 23.3408 61.5459 24.3019C62.1567 25.2629 63.0132 26.0433 64.0267 26.5625C62.5733 26.0595 61.2347 25.2721 60.089 24.2462C58.954 23.1575 61.1545 27.2111 63.7024 28.2997C62.269 27.9151 60.96 27.1649 59.9037 26.1224C59.3941 25.4043 59.5562 30.4539 66.9684 30.9635C68.7595 31.0144 70.5373 30.6414 72.1569 29.8748C70.1417 31.033 68.613 31.5889 62.6601 30.8245C71.9253 35.156 87.5372 30.8245 92.7721 20.957C93.328 20.2621 93.606 19.6136 93.2353 19.1272C92.4246 17.9922 91.197 13.9155 93.0964 13.7765C93.7987 13.7976 94.4842 13.9969 95.0884 14.3556L98.4702 11.4833C102.057 12.2451 105.684 12.8019 109.334 13.1511C109.672 12.6515 109.891 12.0804 109.972 11.4824C110.054 10.8843 109.996 10.2756 109.803 9.70371C109.61 9.13182 109.287 8.61228 108.86 8.18567C108.433 7.75906 107.914 7.43694 107.342 7.24449Z" fill="#393C40"/>
<path d="M96.4549 36.0364C97.7521 38.3527 103.682 48.7066 104.33 52.598C104.979 56.4894 101.736 73.2595 98.7018 81.0423C95.6674 88.8251 96.3854 89.8906 95.042 89.8906C93.6985 89.8906 71.8789 82.1541 71.4619 81.2739C71.045 80.3937 77.9708 70.4568 78.1793 66.3337C78.3877 62.2107 75.446 50.1196 78.1793 43.3096C80.9125 36.4997 85.7304 32.7936 86.4022 33.2337C89.4072 35.1301 92.9021 36.1045 96.4549 36.0364Z" fill="#CBCDDA"/>
<path d="M131.842 160.596C135.451 160.955 136.202 157.109 129.535 155.023C127.453 156.707 122.146 155.979 119.363 155.464C115.983 154.851 114.111 153.343 111.392 153.249C111.346 154.312 111.11 155.374 111.092 156.515C110.964 162.493 127.959 160.289 131.842 160.596Z" fill="#282828"/>
<path d="M101.027 55C106.571 60.4424 105.773 60.0982 110.151 63.2389C114.53 66.3796 123.827 72.9837 125.725 73.1558C127.623 73.3278 131.376 71.4779 134.008 72.5534L133.274 74.7046C133.274 74.7046 137.588 76.1674 138.839 76.8557C140.09 77.5441 139.594 79.136 137.998 78.7057C136.402 78.2755 136.919 78.34 136.919 78.34C136.975 78.8154 136.933 79.297 136.795 79.7556C136.658 80.2141 136.429 80.6401 136.121 81.0075C134.892 82.4057 133.964 83.6749 132.347 83.1586C130.729 82.6424 123.546 78.8563 122.468 78.6842C121.389 78.5121 102.624 71.8005 100.1 69.3697C97.5763 66.9389 88.9484 59.7756 88.0425 57.775C87.1365 55.7744 101.027 55 101.027 55Z" fill="#F7AB98"/>
<path d="M150.666 50.142C151.941 50.794 153.335 51.1819 154.764 51.2821C149.005 54.4443 144.756 60.317 143.461 61.6077L144.173 62.3175C145.726 60.7257 150.644 53.885 157.115 51.2821C163.241 50.7013 169.625 45.9688 173.551 38.6333C175.658 34.7897 176.798 30.4934 176.873 26.1136C176.873 20.4991 174.716 15.5729 170.402 13.2066C168.781 12.3813 166.98 11.9675 165.161 12.002C158.69 12.002 151.723 16.9497 147.517 24.7799C145.376 28.6433 144.221 32.9722 144.152 37.3856C144.152 38.9823 144.355 40.5725 144.756 42.1182C144.756 42.4624 144.756 42.785 144.756 43.1507C144.725 49.1966 143.402 55.1663 140.873 60.6611L141.736 61.1344C144.151 56.013 145.515 50.4618 145.748 44.8071C146.763 47.0706 148.489 48.9432 150.666 50.142ZM151.377 48.7868C147.711 46.8292 145.748 42.5269 145.748 37.3856C145.809 33.2699 146.875 29.231 148.854 25.6188C152.801 18.0252 159.466 13.5078 165.161 13.5293C166.731 13.5192 168.279 13.896 169.669 14.6264C173.357 16.5624 175.385 20.8648 175.385 26.1136C175.307 30.2461 174.227 34.2984 172.235 37.9234C168.288 45.3664 161.602 49.9054 155.95 49.8839C154.358 49.902 152.787 49.525 151.377 48.7868Z" fill="black"/>
<path d="M141.515 58.7713L130 82.0581L133.888 83.9705L145.403 60.6837L141.515 58.7713Z" fill="black"/>
<path d="M179.526 41.6881C179.526 42.7304 179.836 43.7494 180.417 44.6161C180.998 45.4828 181.823 46.1583 182.789 46.5572C183.754 46.9561 184.817 47.0605 185.842 46.8571C186.867 46.6538 187.809 46.1518 188.548 45.4147C189.287 44.6777 189.79 43.7386 189.994 42.7162C190.198 41.6939 190.093 40.6342 189.693 39.6712C189.293 38.7082 188.616 37.8851 187.747 37.3059C186.878 36.7268 185.856 36.4177 184.811 36.4177C183.411 36.4234 182.07 36.9805 181.08 37.9676C180.091 38.9548 179.532 40.292 179.526 41.6881Z" fill="#1BC98E"/>
<path d="M98.6 80.7239C101.634 72.9411 104.877 56.1711 104.229 52.2797C103.58 48.3883 97.6503 38.1039 96.3763 35.7181C94.5896 35.6461 92.8136 35.4057 91.072 35C90.2613 36.4824 85.8603 39.6326 85.4433 45.3307C85.0959 49.9634 88.2692 60.85 86.2772 68.7255C84.7254 74.2051 82.6223 79.5134 80 84.569C84.8716 86.5447 89.8613 88.2157 94.9402 89.5722C96.2374 89.5722 95.5425 88.5067 98.6 80.7239Z" fill="#BABCC8"/>
<path d="M104.684 52C110.673 56.4717 109.857 56.2363 114.472 58.7271C119.088 61.2179 128.919 66.4349 130.829 66.4349C132.74 66.4349 136.26 64.4736 138.986 65.1797L138.45 67.141C138.45 67.141 142.743 68.1216 144.16 68.6315C145.576 69.1414 145.104 70.5928 143.473 70.377C141.841 70.1613 142.399 70.1221 142.399 70.1221C142.581 70.9871 142.38 71.8826 141.841 72.6129C140.747 73.9858 139.931 75.2214 138.3 74.9664C136.668 74.7114 129.177 71.7303 128.082 71.7303C126.987 71.7303 107.818 67.141 105.092 65.1405C102.366 63.14 93.157 57.2954 92.0622 55.6087C90.9675 53.922 104.684 52 104.684 52Z" fill="#FBC6B6"/>
<path d="M96.9637 61C92.7063 57.4902 86.1855 50.4705 79 49.8738C79 49.8738 83.1137 41.6433 86.1855 38.9407C88.5028 36.8874 93.6404 32.8862 97.6463 36.3785C99.8019 38.2563 104.329 48.1014 107.975 53.2257C108.604 54.1909 96.9637 61 96.9637 61Z" fill="#CBCDDA"/>
<path d="M67.0594 30.8246C68.6528 30.9204 70.2449 30.6179 71.692 29.9444C69.5842 30.8015 68.6345 31.45 62.6816 30.6856C71.9468 35.0403 87.5588 30.6856 92.7936 20.8413C93.3495 20.1233 93.6275 19.4747 93.2569 18.9883C92.4462 17.8765 91.2185 13.7766 93.1179 13.6376C94.0213 13.6376 94.8088 14.6336 94.8088 14.6336L98.4917 11.3213C102.076 12.1073 105.703 12.6796 109.355 13.0354C109.658 12.5378 109.846 11.9794 109.907 11.4004C109.967 10.8213 109.899 10.236 109.706 9.68661C109.513 9.13721 109.201 8.63738 108.792 8.22312C108.383 7.80887 107.887 7.49049 107.34 7.29093C107.664 5.62318 105.163 2.10239 102.707 1.43066C97.4262 2.84361 93.9286 8.88918 90.5236 14.7263C81.6522 29.8981 66.851 31.6585 60.4116 27.8597C61.2143 28.8351 62.2326 29.6107 63.3863 30.1252C64.5399 30.6397 65.7974 30.8792 67.0594 30.8246Z" fill="black"/>
</svg>
