<svg viewBox="0 0 176 196" fill="none" xmlns="http://www.w3.org/2000/svg">
<path d="M158.342 117.167C167.695 78.1185 143.623 38.8813 104.574 29.5282C65.5256 20.1751 26.2884 44.248 16.9353 83.2965C7.58218 122.345 31.655 161.582 70.7035 170.935C109.752 180.288 148.989 156.215 158.342 117.167Z" fill="#F6F8FA"/>
<path d="M53.6838 164.873L146.952 82.4306L115.885 77.5961L69.7605 53.2151L15.0073 99.0624C15.0073 99.5713 15.0073 100.08 15.0073 100.612C15.0002 113.828 18.5979 126.796 25.413 138.119C32.228 149.442 42.0024 158.692 53.6838 164.873Z" fill="#E3E8EF"/>
<g style="mix-blend-mode:soft-light" opacity="0.6">
<path d="M11.7676 100.473C11.7676 80.3381 19.7661 61.0278 34.0037 46.7903C48.2412 32.5528 67.5514 24.5542 87.6864 24.5542C97.657 24.5512 107.531 26.5128 116.743 30.327C125.955 34.1412 134.326 39.7332 141.376 46.7835C148.426 53.8338 154.018 62.2043 157.832 71.4165C161.647 80.6288 163.608 90.5023 163.605 100.473C163.605 120.608 155.607 139.918 141.369 154.156C127.132 168.393 107.821 176.392 87.6864 176.392C67.5533 176.386 48.2467 168.385 34.0104 154.149C19.7742 139.913 11.7737 120.606 11.7676 100.473ZM15.006 100.473C15.0305 119.742 22.6958 138.214 36.3207 151.839C49.9456 165.464 68.4179 173.129 87.6864 173.153C106.957 173.129 125.432 165.464 139.06 151.84C152.689 138.216 160.359 119.744 160.39 100.473C160.365 81.1984 152.698 62.7202 139.068 49.0909C125.439 35.4617 106.961 27.794 87.6864 27.7695C68.4139 27.794 49.9381 35.4624 36.3125 49.0923C22.6869 62.7222 15.0244 81.2005 15.006 100.473Z" fill="none"/>
</g>
<path d="M88.0545 179.746C88.0545 179.746 87.8 170.771 88.0545 164.156C88.3089 157.54 88.0545 146.992 87.5687 139.59C87.7327 136.21 88.1893 132.851 88.9335 129.55H74.8462L75.0775 130.476C75.6558 134.732 76.5579 136.929 76.8124 139.057C76.3081 145.699 76.7836 152.378 78.2234 158.882C79.7817 165.403 80.803 172.041 81.2768 178.729C81.2768 178.729 81.2768 178.729 81.2768 178.891C81.3134 182.83 80.6557 186.745 79.3338 190.457C78.4779 192.469 89.0492 190.457 89.0492 190.457C89.0492 190.457 88.4015 184.558 88.0545 179.746Z" fill="#D8A380"/>
<path d="M81.1399 182.245C81.4406 187.611 82.0883 189.947 84.2396 189.577C86.3908 189.207 88.1257 188.328 88.3108 181.944C88.818 184.443 89.1886 186.968 89.4211 189.508C89.4211 192.538 85.5118 195.869 83.2681 195.499C82.1333 194.996 81.1616 194.186 80.4627 193.16C79.7638 192.134 79.3654 190.933 79.3125 189.693C79.7903 187.18 80.4002 184.694 81.1399 182.245Z" fill="#282828"/>
<path d="M104.595 96.333C107.059 100.407 108.108 105.18 107.579 109.911C106.408 113.299 104.856 116.543 102.953 119.581C102.953 119.581 100.987 110.837 96.0134 111.669C91.0401 112.502 91.6415 118.169 93.0294 120.113C92.0787 119.616 91.2788 118.873 90.7132 117.961C90.1476 117.05 89.8371 116.003 89.8141 114.931L88.75 95.5002L104.595 96.333Z" fill="#3F3F6B"/>
<path d="M91.5934 121.546C91.4084 119.487 91.8016 110.743 97.8159 111.113C103.83 111.484 102.951 114.838 103.344 118.724C103.738 122.61 100.569 136.859 100.013 141.301C99.4583 145.742 99.6896 150.553 99.2963 153.607C98.9031 156.66 94.1611 158.834 93.1664 152.913C92.1717 146.991 93.3977 145.256 93.1664 141.069C92.4262 133.875 91.5934 121.546 91.5934 121.546Z" fill="#D8A380"/>
<path d="M91.5493 119.025C92.3126 117.174 92.5439 111.045 99.044 111.23C99.044 105.84 98.8358 104.29 98.8358 104.29C98.8358 104.29 90.5777 106.071 90.2076 110.998C90.1017 112.798 89.807 114.581 89.3286 116.319L91.5493 119.025Z" fill="#4C4C78"/>
<path d="M74.0598 94.5051C72.2925 102.599 71.824 110.923 72.6719 119.164C73.2701 124.44 74.1348 129.682 75.2627 134.87H89.1418L89.6969 114.931V94.5514L74.0598 94.5051Z" fill="#4C4C78"/>
<path d="M90.7635 109.541L89.7688 97.6284L83.2688 96.1943C83.2688 96.1943 80.9556 93.3722 82.4591 134.871H89.2136L90.7635 109.541Z" fill="#3F3F6B"/>
<path d="M43.1569 81.4592C43.1524 81.5911 43.101 81.7172 43.012 81.8147C42.923 81.9122 42.8021 81.9748 42.6711 81.9912L33.1871 83.7955C32.8863 83.7955 32.5856 83.7955 32.5625 83.4948L32.1924 81.5748C32.1924 81.3435 32.3543 81.1122 32.655 81.0659L42.1622 79.2385C42.4629 79.2385 42.7405 79.2385 42.7868 79.5392L43.1569 81.4592Z" fill="#1BC98E"/>
<path d="M68.1863 58.8362C66.8909 63.4626 64.6471 73.8488 63.5599 74.4502C58.9411 75.9123 54.2045 76.9726 49.4032 77.6193C48.0384 77.4111 42.8337 76.3933 40.9832 77.4805C39.3986 78.3972 37.6701 79.0385 35.871 79.3773C35.1077 79.3773 34.2981 80.7652 37.3977 80.2563C38.0917 80.2563 34.807 82.9396 35.6166 83.7261C37.4163 85.0153 39.5212 85.8126 41.7234 86.0393C42.7875 85.7385 44.9619 82.1068 46.3498 82.4538C47.7377 82.8008 64.8553 83.8649 67.5848 81.3666C70.3144 78.8684 75.7272 67.8576 75.8892 66.9323C76.0511 66.0071 68.1863 58.8362 68.1863 58.8362Z" fill="#D8A380"/>
<path d="M30.1589 80.2792C30.1527 79.9386 30.2157 79.6002 30.3439 79.2846C31.3386 76.4162 49.4046 35.334 56.4367 21.4549C63.1449 8.17721 78.944 0.0116552 94.3498 0.0116552C99.434 -0.118766 104.487 0.846668 109.165 2.84237C113.842 4.83807 118.036 7.81728 121.46 11.5776C139.179 31.5867 148.941 74.0336 149.219 77.8735C149.24 78.1893 149.24 78.5062 149.219 78.8219C149.219 82.0835 147.252 82.5462 146.905 82.5462V82.0373L146.558 81.5052C146.659 81.4316 146.781 81.3912 146.905 81.3896C146.905 81.3896 148.131 81.6209 148.224 78.7988C148.246 78.5139 148.246 78.2278 148.224 77.9429C147.923 74.45 138 31.7948 120.628 12.2253C117.297 8.60243 113.227 5.7365 108.694 3.82103C104.161 1.90556 99.2692 0.985162 94.3498 1.12198C79.3141 1.12198 63.862 9.14874 57.3388 21.9407C50.3993 35.8198 32.2407 77.0176 31.2923 79.7703C31.2116 79.9604 31.1722 80.1654 31.1767 80.3718C31.1913 80.6079 31.2528 80.8388 31.3576 81.051C31.4625 81.2631 31.6085 81.4522 31.7873 81.6072C31.966 81.7623 32.1739 81.8802 32.3987 81.954C32.6235 82.0278 32.8607 82.0561 33.0966 82.0373H33.3742V83.1245H32.981C32.5993 83.1431 32.2177 83.0859 31.8583 82.9561C31.4988 82.8264 31.1687 82.6267 30.8869 82.3686C30.6051 82.1104 30.3773 81.799 30.2166 81.4523C30.0559 81.1056 29.9655 80.7305 29.9507 80.3486L30.1589 80.2792Z" fill="#1BC98E"/>
<path d="M146.972 83.0554C146.956 83.118 146.928 83.1768 146.889 83.2283C146.849 83.2798 146.8 83.323 146.744 83.3553C146.688 83.3876 146.627 83.4085 146.562 83.4165C146.498 83.4246 146.433 83.4198 146.371 83.4024L136.794 82.1764C136.493 82.1764 136.262 81.8988 136.285 81.6675L136.54 79.7475C136.556 79.6849 136.584 79.6261 136.623 79.5746C136.662 79.5231 136.711 79.4799 136.767 79.4476C136.824 79.4152 136.885 79.3944 136.95 79.3864C137.014 79.3783 137.079 79.3831 137.141 79.4005L146.741 80.6265C147.042 80.6265 147.25 80.9041 147.227 81.1123L146.972 83.0554Z" fill="#1BC98E"/>
<path d="M80.4002 24.7394C76.861 31.6789 76.4909 48.4727 76.6528 54.5564C76.8148 60.64 89.6298 57.8411 89.6298 57.8411L90.4163 24.5081L80.4002 24.7394Z" fill="#5E2014"/>
<path d="M99.8295 24.6469C103.461 30.4067 103.831 49.1204 103.669 55.2041C103.507 61.2878 90.6924 57.8411 90.6924 57.8411L89.8828 24.5312L99.8295 24.6469Z" fill="#300901"/>
<path d="M87.1755 49.7686L69.7109 53.2152L76.3498 82.8934L73.0419 98.8775H92.1488L90.2058 58.4199L87.1755 49.7686Z" fill="#CBCDDA"/>
<path d="M93.1453 50.0459L108.759 54.3716L102.259 83.1245L105.937 98.9467H89.5135L89.4673 57.0549L93.1453 50.0459Z" fill="#BABCC8"/>
<path d="M89.4202 57.286L95.5502 51.4105C95.5502 51.4105 94.4398 42.7129 94.4398 41.5795L89.8135 41.3481L85.1871 41.5795C85.1871 42.7129 83.938 52.0119 83.938 52.0119L89.4202 57.286Z" fill="#D8A380"/>
<path d="M95 44L88.9346 42.667L90.5 56.5L95.5 51.5C95.5 51.5 95 45.0641 95 44Z" fill="#BC8E6F"/>
<path d="M89.9761 41.1404L85.3497 41.3717C85.3497 41.7649 85.2109 43.0141 85.0259 44.5176C86.1825 46.2294 89.6523 49.3753 91.9654 49.3753C94.2786 49.3753 93.8623 46.5764 95.042 45.3272C94.8107 43.4767 94.6025 41.8112 94.6025 41.3717L89.9761 41.1404Z" fill="#BC8E6F"/>
<path d="M99.8078 33.5068C98.9288 40.2613 93.4466 46.0211 90.185 46.0211C86.9234 46.0211 81.8806 42.32 80.4927 33.6919C79.3361 26.5904 81.1173 19.5352 89.9999 19.5352C98.3505 19.5352 100.71 26.4285 99.8078 33.5068Z" fill="#D8A380"/>
<path d="M99.8064 33.5068C100.431 26.4053 98.3722 19.6277 90.0679 19.6277V45.998C93.4451 46.0211 99.0199 42.4126 99.8064 33.5068Z" fill="#BC8E6F"/>
<path d="M90.2297 24.5775C92.8899 27.1914 97.3081 24.9939 98.3259 29.5509C99.132 33.2506 98.9888 37.0941 97.9095 40.7236C97.5067 42.0462 97.6055 43.471 98.1871 44.7254L102.027 32.6505C102.027 32.6505 101.426 23.1433 96.7992 20.1362C95.8025 19.4368 94.6617 18.9699 93.4607 18.7697C92.2598 18.5696 91.0292 18.6413 89.8596 18.9796C89.7439 19.396 90.2297 24.5775 90.2297 24.5775Z" fill="#300901"/>
<path d="M90.1596 24.5312C88.0777 26.8444 83.2201 24.7856 82.3179 29.3657C81.54 32.5653 81.54 35.9047 82.3179 39.1043C83.7058 44.1701 82.3179 45.373 82.3179 45.373L78.293 32.6505C78.293 32.6505 78.8481 23.9298 83.729 20.46C86.7824 18.2856 90.1134 18.355 90.1365 18.9333C90.1596 19.5116 90.1596 24.5312 90.1596 24.5312Z" fill="#5E2014"/>
<path d="M71.3304 52.8677C69.4105 53.3534 68.092 53.1915 66.7041 59.2289C65.455 64.4336 64.3909 67.3945 64.3909 67.3945C64.3909 67.3945 63.7432 67.5333 65.3162 69.0831C66.8891 70.6329 70.4977 76.4622 72.2557 76.3003C74.0137 76.1383 78.2931 69.3607 78.1543 67.9034C78.0156 66.4461 71.3304 52.8677 71.3304 52.8677Z" fill="#CBCDDA"/>
<path d="M111.279 58.9751C112.552 63.6015 114.68 74.0108 115.906 74.6122C120.509 76.1331 125.239 77.2401 130.039 77.9201C131.381 77.735 136.586 76.7635 138.436 77.9201C140.016 78.8563 141.745 79.5135 143.548 79.8632C144.289 79.8632 145.098 81.2742 141.998 80.7422C141.305 80.6265 144.566 83.4255 143.757 84.212C141.932 85.4481 139.822 86.1967 137.627 86.3864C136.562 86.0625 134.411 82.4077 133 82.7315C131.589 83.0554 114.495 84.0038 111.765 81.4824C109.036 78.961 103.762 67.8809 103.576 66.9556C103.391 66.0303 111.279 58.9751 111.279 58.9751Z" fill="#BC8E6F"/>
<path d="M108.134 54.1401C110.031 54.6028 111.373 54.4409 112.761 60.4783C114.033 65.6829 115.074 68.6438 115.074 68.6438C115.074 68.6438 115.698 68.8057 114.149 70.3324C112.599 71.8591 108.944 77.7115 107.209 77.5496C105.474 77.3877 101.172 70.61 101.31 69.1527C101.449 67.6954 108.134 54.1401 108.134 54.1401Z" fill="#BABCC8"/>
<path d="M92.7276 147.755C92.8664 149.721 92.9589 155.18 95.2952 155.55C99.3433 156.221 98.927 151.063 99.5978 147.616C100.153 150.554 100.431 157.285 98.7419 159.39C95.5266 163.461 93.1671 159.645 92.4269 158.557C91.039 156.452 92.7276 147.755 92.7276 147.755Z" fill="#282828"/>
</svg>
