<svg viewBox="0 0 143 167" fill="none" xmlns="http://www.w3.org/2000/svg">
<g style="mix-blend-mode:soft-light" opacity="0.6">
<path d="M132.33 79.9322C132.33 97.4803 125.359 114.31 112.951 126.718C100.542 139.126 83.7129 146.097 66.1649 146.097C48.6169 146.097 31.7876 139.126 19.3792 126.718C6.97093 114.31 3.07344e-06 97.4803 3.07344e-06 79.9322C-0.0026458 71.2426 1.70695 62.6375 5.03111 54.6088C8.35527 46.5801 13.2288 39.285 19.3733 33.1405C25.5178 26.996 32.8129 22.1224 40.8415 18.7982C48.8702 15.474 57.4752 13.7644 66.1649 13.7671C74.8545 13.7644 83.4595 15.474 91.4882 18.7982C99.5169 22.1224 106.812 26.996 112.956 33.1405C119.101 39.285 123.974 46.5801 127.299 54.6088C130.623 62.6375 132.332 71.2426 132.33 79.9322ZM129.507 79.9322C129.491 63.1358 122.813 47.0315 110.938 35.1527C99.0634 23.2739 82.9613 16.5907 66.1649 16.5693C49.3685 16.5907 33.2664 23.2739 21.3914 35.1527C9.51646 47.0315 2.8384 63.1358 2.82239 79.9322C2.84373 96.7252 9.52415 112.824 21.3985 124.699C33.2729 136.573 49.372 143.254 66.1649 143.275C82.9578 143.254 99.0568 136.573 110.931 124.699C122.806 112.824 129.486 96.7252 129.507 79.9322Z" fill="none"/>
</g>
<path d="M2.65918 86.3629C2.6552 98.8997 6.36914 111.156 13.3313 121.582C20.2935 132.008 30.1911 140.135 41.7725 144.936C53.3538 149.736 66.0986 150.994 78.395 148.551C90.6914 146.107 101.987 140.072 110.853 131.209C119.72 122.345 125.758 111.052 128.205 98.7559C130.653 86.4602 129.399 73.715 124.602 62.1321C119.805 50.5492 111.681 40.6489 101.258 33.6834C90.834 26.7179 78.5788 23 66.042 23C49.2353 23 33.1167 29.6751 21.2307 41.5573C9.3447 53.4396 2.66453 69.5562 2.65918 86.3629Z" fill="#F6F8FA"/>
<path d="M75.5176 142.699L38 111.471L48.2211 105.222L63.5426 42L127.006 95.0007C124.074 107.138 117.624 118.139 108.464 126.624C99.3043 135.11 87.843 140.702 75.5176 142.699Z" fill="#E3E8EF"/>
<path d="M107.151 128.901L106.385 144.787L110.881 162.306C110.881 162.306 112.715 171.398 104.833 161.318C98.4219 153.254 99.8734 154.706 97.1518 151.44C93.6238 147.166 95.1358 145.856 97.3534 142.892C99.571 139.929 97.7768 124.426 97.7768 124.426L107.151 128.901Z" fill="#F4CDBA"/>
<path d="M105.033 162.064C98.4201 153.475 99.1055 154.443 96.767 151.238C93.5011 146.782 95.3154 145.593 97.7951 142.186C98.0975 141.783 104.508 154.483 110.415 160.128L111.06 162.588C111.06 162.588 112.673 172.023 105.033 162.064Z" fill="#737A9D"/>
<path d="M62.3962 108.982H60.6827C60.215 108.982 59.8359 109.361 59.8359 109.829V128.537C59.8359 129.005 60.215 129.384 60.6827 129.384H62.3962C62.8639 129.384 63.243 129.005 63.243 128.537V109.829C63.243 109.361 62.8639 108.982 62.3962 108.982Z" fill="white"/>
<path d="M37.7603 110.273C37.7758 110.51 37.8838 110.732 38.061 110.89C38.2382 111.048 38.4704 111.131 38.7078 111.12H88.7044C88.9418 111.131 89.174 111.048 89.3512 110.89C89.5283 110.732 89.6363 110.51 89.6519 110.273V103.479C89.6468 103.361 89.6181 103.245 89.5674 103.138C89.5167 103.03 89.4451 102.935 89.3568 102.856C89.2684 102.777 89.1652 102.716 89.0532 102.678C88.9411 102.64 88.8225 102.624 88.7044 102.632H38.7078C38.5896 102.624 38.471 102.64 38.359 102.678C38.2469 102.716 38.1437 102.777 38.0554 102.856C37.9671 102.935 37.8955 103.03 37.8448 103.138C37.7941 103.245 37.7654 103.361 37.7603 103.479V110.273Z" fill="black"/>
<path d="M63.9481 123.981H58.8477V142.549H63.9481V123.981Z" fill="#D8D2CA"/>
<path d="M64.0687 138.819C65.8227 140.25 80.7612 151.842 80.7612 152.669V159.443H77.8984V153.697L61.7705 144.161V139.424L64.0687 138.819Z" fill="#D8D2CA"/>
<path d="M60.0956 138.315C58.3618 139.747 43.4233 151.339 43.4233 152.165V158.939H46.3667V153.254L62.4946 143.698V138.92L60.0956 138.315Z" fill="#D8D2CA"/>
<path d="M60.4204 138.416L38.2646 144.565V150.734H40.2403V147.226L58.6665 143.133L60.4204 138.416Z" fill="#D8D2CA"/>
<path d="M63.2817 138.416L85.4375 144.565V150.734H83.4618V147.226L65.0356 143.133L63.2817 138.416Z" fill="#D8D2CA"/>
<path d="M70.0964 85.5759C72.939 86.0799 109.388 92.2489 110.598 92.6319C111.585 93.0576 112.402 93.8 112.921 94.7419C113.439 95.6837 113.629 96.7714 113.46 97.8332C113.319 99.0831 107.876 139.343 107.876 139.343L96.4858 137.589C95.3809 126.483 95.9175 115.274 98.0784 104.325C98.0784 104.325 47.5576 107.631 47.5576 101.059C47.5576 94.4867 70.0964 85.5759 70.0964 85.5759Z" fill="#3F3F6B"/>
<path d="M97.8977 104.225C97.8977 104.225 47.377 107.531 47.377 100.959C47.377 96.9269 51.9129 91.4433 58.5052 88.2581C68.8473 89.891 97.6357 92.7134 107.171 95.9189C108.542 96.3825 108.341 97.6929 108.663 98.2776C110.236 101.14 105.921 131.3 105.196 138.779L96.2849 137.509C95.1935 126.395 95.7369 115.181 97.8977 104.225Z" fill="#4C4C78"/>
<path d="M97.5137 67.1305C99.8321 66.9087 104.247 67.1305 105.195 67.1305C106.142 67.1305 113.259 66.2031 114.246 66.445C116.798 67.3537 119.284 68.4382 121.685 69.6908C121.685 69.6908 122.23 72.1302 119.125 71.0819C114.246 69.4691 111.928 71.0819 109.61 71.5455C108.067 71.79 106.495 71.79 104.953 71.5455C104.025 71.5455 98.441 71.7875 98.441 71.7875L97.5137 67.1305Z" fill="#F4CDBA"/>
<path d="M98.5815 66.3838L101.182 66.5652L101.646 74.1857L98.8638 74.3671L98.5815 66.3838Z" fill="black"/>
<path d="M66.8707 43.5838C69.2093 47.0714 74.3904 61.4858 76.0637 62.9978C79.8537 66.4452 99.429 65.9211 99.429 65.9211V76.0011C99.429 76.0011 75.7008 76.8075 69.6125 74.3076C65.5805 72.6747 53.8071 51.5268 55.9037 44.7732C58.2624 37.2737 66.8707 43.5838 66.8707 43.5838Z" fill="#BABCC8"/>
<path d="M35.2786 87.1287C35.257 89.209 36.0587 91.2135 37.5088 92.7052C38.959 94.1968 40.94 95.0548 43.0201 95.0919L48.4834 94.8903C50.5589 94.6911 52.471 93.6776 53.801 92.0718C55.131 90.466 55.7705 88.3986 55.5797 86.3223L54.4306 58.7837C54.4547 57.7452 54.2732 56.7121 53.8967 55.7439C53.5201 54.7757 52.9559 53.8915 52.2365 53.1421C51.5171 52.3927 50.6567 51.7929 49.7046 51.3772C48.7526 50.9615 47.7278 50.738 46.6892 50.7197L41.246 50.9213C39.1769 51.1498 37.2823 52.1874 35.9754 53.8077C34.6686 55.428 34.0558 57.4995 34.2707 59.57L35.2786 87.1287Z" fill="black"/>
<path d="M142.995 80.8589H86.9307V86.3827H142.995V80.8589Z" fill="#D8D2CA"/>
<path d="M130.656 75.3347H95.3965V79.9312H130.656V75.3347Z" fill="#1BC98E"/>
<path d="M134.934 44.4774L126.117 78.6172L130.568 79.7665L139.384 45.6267L134.934 44.4774Z" fill="#1BC98E"/>
<path d="M45.9445 51.3851C46.2873 39.531 51.5288 37.7569 52.3352 37.394L61.0645 39.2488C63.7861 40.2366 71.6686 68.259 70.7211 72.9361C71.1243 78.3189 70.0155 83.0161 70.0961 85.5765C68.0801 85.3345 45.9042 102.43 45.9042 102.43C45.9042 102.43 45.9042 90.0318 46.1461 82.1089C46.3881 74.1861 45.5817 63.5617 45.9445 51.3851Z" fill="#CBCDDA"/>
<path d="M61.9917 38.3218L66.8704 43.5835L72.0112 58.9455L70.096 85.5768L60.4999 91.2821L50.8433 42.4949L55.9437 38.3218H61.9917Z" fill="#CBCDDA"/>
<path d="M91.5259 69.2269C94.0055 68.985 98.723 69.2269 99.7108 69.2269C100.699 69.2269 108.38 68.2391 109.367 68.481C112.083 69.4583 114.73 70.6168 117.29 71.9485C117.29 71.9485 117.875 74.5492 114.569 73.4404C109.367 71.7066 106.888 73.4404 104.489 73.9242C102.846 74.1896 101.172 74.1896 99.5294 73.9242C98.5415 73.9242 92.5944 74.1863 92.5944 74.1863L91.5259 69.2269Z" fill="#FFEADC"/>
<path d="M66.8508 29.9748C65.4537 31.1709 64.3785 32.6979 63.7235 34.4165C63.0684 36.135 62.8545 37.9903 63.1011 39.8129C63.6051 42.6353 62.6173 43.1796 58.3635 41.0225C54.6138 39.1275 53.9888 38.3815 51.5293 37.7566C53.2227 35.8615 55.5613 26.6283 54.3718 20.6811C53.1824 14.7339 66.8508 29.9748 66.8508 29.9748Z" fill="#FFEADC"/>
<path d="M54.431 20.1972C53.7052 16.8103 65.1964 25.6001 68.926 29.2289L56.83 39.7524C55.1883 38.6722 53.3944 37.8432 51.5078 37.2929C53.3424 35.3575 55.7616 26.1242 54.431 20.1972Z" fill="#F4CDBA"/>
<path d="M54.4321 12.2551C52.4161 21.5287 57.0731 32.0119 64.5121 33.5441C71.9511 35.0762 77.0112 28.3226 78.9466 19.0289C80.8819 9.73509 77.9184 3.06213 70.5601 1.52997C63.2017 -0.00219417 56.2868 2.96133 54.4321 12.2551Z" fill="#FFEADC"/>
<path d="M78.1385 17.8796C78.1385 20.1174 76.7274 21.2867 77.7152 27.2339C77.4733 28.7257 73.6832 27.7379 72.9373 27.7379C72.1914 27.7379 78.1385 17.8796 78.1385 17.8796Z" fill="#FFEADC"/>
<path d="M63.5644 40.2775L52.4159 34.5117L51.0249 38.322L63.5644 44.9143V40.2775Z" fill="#BABCC8"/>
<path d="M64.2095 33.5441C64.9904 33.715 65.7893 33.7894 66.5884 33.7658C59.7542 29.5927 66.2053 8.84805 68.4834 5.80389C67.4149 5.17893 71.7292 1.77189 70.3381 1.52997C62.9596 -0.00219405 56.1052 2.96133 54.2102 12.2551C52.3151 21.5489 56.831 32.0119 64.2095 33.5441Z" fill="#F4CDBA"/>
<path d="M70.9019 12.497L79.3893 10.8842C80.4981 9.15048 78.2402 1.81223 66.87 0.804235C56.4473 -0.264246 54.4313 4.57416 52.879 10.5214C51.3266 16.4686 54.5522 27.355 54.5522 27.355C54.5522 27.355 63.3823 23.6254 62.1727 21.307C61.4268 19.9562 60.6809 15.259 62.7976 15.3598C63.8056 15.3598 64.5314 16.7306 64.5314 16.7306L70.9019 12.497Z" fill="#C5605D"/>
<path d="M55.6017 4.81551C54.2509 2.21487 50.3802 -4.61937 45.8241 5.05743C41.7921 13.4843 44.9572 20.8024 44.9572 24.149C44.8632 24.7839 44.5494 25.3657 44.0705 25.793C43.5916 26.2204 42.9779 26.4661 42.3364 26.4875C43.5269 27.0254 44.8539 27.1843 46.1377 26.9426C47.4214 26.701 48.5999 26.0706 49.5134 25.1368C52.618 21.7902 50.1383 11.0248 52.8599 8.78703C53.7023 8.30095 54.6235 7.9666 55.5815 7.79919L55.6017 4.81551Z" fill="#5E2014"/>
<path d="M79.4497 10.5402C80.1957 10.5402 83.2801 13.2014 80.8811 17.2132C76.4288 16.1122 72.0407 14.7662 67.7368 13.1812L71.9301 10.1975L79.4497 10.5402Z" fill="#C5605D"/>
<path d="M93.3794 68.5215L95.98 68.7029L96.4437 76.3234L93.6616 76.5048L93.3794 68.5215Z" fill="black"/>
<path d="M58.0802 43.9663C60.5599 47.6757 66.8901 63.1989 68.6642 64.8117C72.6962 68.4809 93.5012 67.493 93.5012 67.493L94.2471 78.1375C94.2471 78.1375 68.261 79.5689 61.7896 76.9077C57.5762 75.174 45.4399 52.494 47.6777 45.317C50.1775 37.2732 58.0802 43.9663 58.0802 43.9663Z" fill="#CBCDDA"/>
<path d="M49.4327 25.1369C52.5373 21.7903 50.0577 11.0249 52.7793 8.7871C52.9947 8.62072 53.2322 8.48502 53.4849 8.3839C53.2833 9.06934 53.0817 9.7951 52.9002 10.5209C51.4084 16.5689 54.5735 27.3545 54.5735 27.3545C54.5735 27.3545 63.4035 23.6249 62.194 21.3065C61.448 19.9557 60.7021 15.2585 62.8189 15.3593C63.2624 15.3593 64.2301 16.4479 64.5325 16.7301C65.5203 7.65814 64.2503 0.461012 63.1415 0.602132C61.6461 0.5593 60.162 0.873444 58.8122 1.51853C57.4625 2.16362 56.2859 3.12108 55.3799 4.31157C53.8477 1.48917 50.1585 -4.13547 45.8443 5.01717C41.8123 13.4441 44.9774 20.7621 44.9774 24.1087C44.8914 24.7543 44.5785 25.3482 44.0946 25.7841C43.6107 26.2199 42.9874 26.4693 42.3364 26.4876C43.5169 27.0073 44.8274 27.1565 46.0945 26.9153C47.3616 26.6741 48.5257 26.0539 49.4327 25.1369Z" fill="#9B4B49"/>
</svg>
