<svg viewBox="0 0 161 184" fill="none" xmlns="http://www.w3.org/2000/svg">
<path d="M152.485 99.7759C156.737 59.7941 127.772 23.9358 87.79 19.6841C47.8082 15.4325 11.9499 44.3975 7.69829 84.3793C3.44664 124.361 32.4116 160.219 72.3934 164.471C112.375 168.723 148.233 139.758 152.485 99.7759Z" fill="#F6F8FA"/>
<path d="M57.5169 161.117L98.9557 126.372L86.494 32.6545L7.50781 98.6925C8.8368 112.844 14.2808 126.297 23.1679 137.391C32.0549 148.484 43.996 156.732 57.5169 161.117Z" fill="#E3E8EF"/>
<path d="M92.123 165.889C93.0959 171.1 92.9106 175.594 93.7213 180.551C94.6942 186.365 111.001 180.111 114.846 179.578C118.691 179.045 117.162 175.108 110.051 174.598C99.5121 173.81 99.072 166.838 99.072 166.838L92.123 165.889Z" fill="#F4CDBA"/>
<path d="M44.2678 134.132L30.7405 137.537L18.6262 147.59C18.6262 147.59 12.6038 152.524 17.3291 141.706C21.7301 131.654 21.5448 132.163 21.9617 130.681C22.3787 129.198 23.9537 127.507 28.4011 127.971C32.2693 128.365 45.7965 123.153 45.7965 123.153L44.2678 134.132Z" fill="#F4CDBA"/>
<path d="M16.2643 143.351C18.8123 135.522 18.7891 133.345 20.3874 129.731C21.6845 126.789 24.024 127.415 28.8419 127.739C29.3515 127.739 25.6222 137.305 21.7772 145.111C21.7772 145.111 12.0487 156.322 16.2643 143.351Z" fill="#282828"/>
<path d="M84.015 35.2026C81.1428 38.098 62.566 56.9065 62.2649 61.238C61.9638 65.5695 71.368 80.4402 75.6763 85.3507C79.9847 90.2613 81.2818 82.826 81.2818 82.826C81.2818 82.826 70.6499 65.6389 71.229 63.0447C71.8081 60.4504 83.8761 54.428 85.3122 52.6908C86.7483 50.9535 84.015 35.2026 84.015 35.2026Z" fill="#F4CDBA"/>
<path d="M95.4806 88.3386C95.9902 92.6238 100.669 128.48 100.739 134.317C100.808 140.154 102.916 167.441 103.055 169.873C98.2602 171.008 90.987 172.189 90.987 172.189C90.987 172.189 87.9526 155.512 84.2002 136.61C81.0963 120.86 70.9972 106.498 71.2752 103.58C71.5531 100.661 83.9454 82.5247 83.9454 82.5247L95.4806 88.3386Z" fill="#3F3F6B"/>
<path d="M93.2119 98.8087C91.1504 102.631 79.314 126.813 72.3651 130.38C65.4162 133.947 36.4623 137.537 34.7251 137.607C32.9879 137.676 32.6636 126.025 32.6636 126.025C32.6636 126.025 57.8419 118.775 59.7181 117.571C67.5472 112.568 65.6247 94.4077 68.798 87.4588C70.2405 83.8697 72.2419 80.5316 74.7278 77.5681L97.7519 83.4284L93.2119 98.8087Z" fill="#4C4C78"/>
<path d="M98.4007 25.9607C97.2862 27.1961 96.5038 28.6945 96.127 30.3151C95.7502 31.9357 95.7914 33.6255 96.2465 35.2259C97.0109 37.6812 96.2465 38.2603 92.1698 36.8705C90.12 35.9117 87.956 35.2189 85.7305 34.809C87.0044 32.9096 88.0468 24.4319 86.2169 19.2897C84.387 14.1475 98.4007 25.9607 98.4007 25.9607Z" fill="#FFEADC"/>
<path d="M86.2624 18.7568C85.2201 15.8383 96.4773 22.2545 100.16 25.034L90.895 35.8049C89.306 35.0407 87.6119 34.5176 85.8687 34.2529C87.05 32.3536 88.0923 23.8759 86.2624 18.7568Z" fill="#F4CDBA"/>
<path d="M85.1966 11.7383C84.5944 20.1929 89.8292 28.9485 96.6392 29.4349C103.449 29.9214 107.109 23.2967 107.711 14.8422C108.313 6.38767 105.024 0.782205 98.2606 0.318943C91.497 -0.144319 85.822 3.26065 85.1966 11.7383Z" fill="#FFEADC"/>
<path d="M106.276 13.9849C106.6 15.9537 105.511 17.2045 107.272 22.3004C107.272 23.6439 103.797 23.3428 103.126 23.4354C102.454 23.5281 106.276 13.9849 106.276 13.9849Z" fill="#FFEADC"/>
<path d="M96.4764 29.4583C97.1844 29.5402 97.8994 29.5402 98.6074 29.4583C92.0523 26.5629 95.4804 9.81597 97.125 6.85109C96.1058 6.411 99.4413 0.504408 98.0978 0.411756C91.3805 -0.074669 85.6592 3.37663 85.0338 11.8543C84.4084 20.332 89.736 28.9255 96.4764 29.4583Z" fill="#F4CDBA"/>
<path d="M107.342 7.24449C107.712 5.2293 104.608 -0.353006 94.9494 0.0176032C92.0211 -0.111051 89.1391 0.781397 86.796 2.54238C84.1457 4.3293 82.0827 6.8597 80.8663 9.81559C75.2608 17.2741 66.9684 24.7789 62.799 20.8875C63.2047 21.8631 63.9213 22.6774 64.8374 23.2039C63.2567 22.8663 61.7844 22.1421 60.5522 21.096C60.592 22.2341 60.9351 23.3408 61.5459 24.3019C62.1567 25.2629 63.0132 26.0433 64.0267 26.5625C62.5733 26.0595 61.2347 25.2721 60.089 24.2462C58.954 23.1575 61.1545 27.2111 63.7024 28.2997C62.269 27.9151 60.96 27.1649 59.9037 26.1224C59.3941 25.4043 59.5562 30.4539 66.9684 30.9635C68.7595 31.0144 70.5373 30.6414 72.1569 29.8748C70.1417 31.033 68.613 31.5889 62.6601 30.8245C71.9253 35.156 87.5372 30.8245 92.7721 20.957C93.328 20.2621 93.606 19.6136 93.2353 19.1272C92.4246 17.9922 91.197 13.9155 93.0964 13.7765C93.7987 13.7976 94.4842 13.9969 95.0884 14.3556L98.4702 11.4833C102.057 12.2451 105.684 12.8019 109.334 13.1511C109.672 12.6515 109.891 12.0804 109.972 11.4824C110.054 10.8843 109.996 10.2756 109.803 9.70371C109.61 9.13182 109.287 8.61228 108.86 8.18567C108.433 7.75906 107.914 7.43694 107.342 7.24449Z" fill="#F4CA5F"/>
<path d="M96.4549 36.0364C97.7521 38.3527 103.682 48.7066 104.33 52.598C104.979 56.4894 101.736 73.2595 98.7018 81.0423C95.6674 88.8251 96.3854 89.8906 95.042 89.8906C93.6985 89.8906 71.8789 82.1541 71.4619 81.2739C71.045 80.3937 77.9708 70.4568 78.1793 66.3337C78.3877 62.2107 75.446 50.1196 78.1793 43.3096C80.9125 36.4997 85.7304 32.7936 86.4022 33.2337C89.4072 35.1301 92.9021 36.1045 96.4549 36.0364Z" fill="#CBCDDA"/>
<path d="M114.777 179.485C118.367 178.976 118.182 175.061 111.21 174.621C109.589 176.752 104.261 177.308 101.435 177.47C98.0071 177.679 95.8298 176.659 93.166 177.215C93.3745 178.258 93.3976 179.346 93.6524 180.458C94.9496 186.295 110.932 180.111 114.777 179.485Z" fill="#282828"/>
<path d="M98.8183 81.0425C101.853 73.2597 105.095 56.4897 104.447 52.5983C103.798 48.7069 97.8686 38.4225 96.5946 36.0367C94.8078 35.9647 93.0318 35.7243 91.2903 35.3186C90.4795 36.801 86.0785 39.9512 85.6616 45.6493C85.3142 50.282 88.4875 61.1686 86.4955 69.0441C84.9437 74.5237 82.8405 79.8321 80.2183 84.8876C85.0898 86.8633 90.0795 88.5343 95.1585 89.8908C96.4556 89.8908 95.7607 88.8253 98.8183 81.0425Z" fill="#BABCC8"/>
<path d="M88.4175 36.9626C89.2883 36.7234 90.1997 36.6707 91.0922 36.8079C91.9848 36.9452 92.8382 37.2693 93.5969 37.759C94.3556 38.2487 95.0023 38.8931 95.4948 39.65C95.9874 40.4068 96.3146 41.2591 96.4551 42.1511C96.8952 46.0194 97.6828 58.9907 99.0031 59.8477C100.323 60.7048 114.546 62.164 116.491 61.3765C118.437 60.5889 120.823 56.7439 122.537 56.7439C124.251 56.7439 127.725 58.041 128.374 59.9867C129.022 61.9324 128.814 63.438 126.868 64.0866C124.923 64.7351 125.339 63.6696 123.394 64.0866C121.798 64.5189 120.247 65.1005 118.761 65.8238C115.935 66.8893 97.3585 72.3095 93.4671 69.4836C89.5757 66.6577 84.8273 51.9491 84.2018 46.1583C83.4375 38.1902 88.4175 36.9626 88.4175 36.9626Z" fill="#FFEADC"/>
<path d="M67.0594 30.8246C68.6528 30.9204 70.2449 30.6179 71.692 29.9444C69.5842 30.8015 68.6345 31.45 62.6816 30.6856C71.9468 35.0403 87.5588 30.6856 92.7936 20.8413C93.3495 20.1233 93.6275 19.4747 93.2569 18.9883C92.4462 17.8765 91.2185 13.7766 93.1179 13.6376C94.0213 13.6376 94.8088 14.6336 94.8088 14.6336L98.4917 11.3213C102.076 12.1073 105.703 12.6796 109.355 13.0354C109.658 12.5378 109.846 11.9794 109.907 11.4004C109.967 10.8213 109.899 10.236 109.706 9.68661C109.513 9.13721 109.201 8.63738 108.792 8.22312C108.383 7.80887 107.887 7.49049 107.34 7.29093C107.664 5.62318 105.163 2.10239 102.707 1.43066C97.4262 2.84361 93.9286 8.88918 90.5236 14.7263C81.6522 29.8981 66.851 31.6585 60.4116 27.8597C61.2143 28.8351 62.2326 29.6107 63.3863 30.1252C64.5399 30.6397 65.7974 30.8792 67.0594 30.8246Z" fill="#DBAE3E"/>
<path d="M96.6163 42.1512C96.4751 41.0068 96.0034 39.9285 95.2587 39.0481C94.5141 38.1677 93.5289 37.5235 92.4238 37.1943C92.9883 43.5106 94.1044 49.7653 95.7593 55.8869C97.1723 59.6394 98.8863 59.9173 100.392 60.2416C99.9718 60.1762 99.565 60.0433 99.1874 59.8478C97.8671 59.0371 97.0564 46.0195 96.6163 42.1512Z" fill="#F4CDBA"/>
</svg>
