<svg viewBox="0 0 143 164" fill="none" xmlns="http://www.w3.org/2000/svg">
<path d="M132.33 79.2767C132.33 96.8248 125.359 113.654 112.951 126.063C100.542 138.471 83.7129 145.442 66.1649 145.442C48.6169 145.442 31.7876 138.471 19.3792 126.063C6.97093 113.654 3.07344e-06 96.8248 3.07344e-06 79.2767C-0.0026458 70.587 1.70695 61.982 5.03111 53.9533C8.35527 45.9246 13.2288 38.6295 19.3733 32.485C25.5178 26.3405 32.8129 21.4669 40.8415 18.1427C48.8702 14.8185 57.4752 13.1089 66.1649 13.1116C74.8545 13.1089 83.4595 14.8185 91.4882 18.1427C99.5169 21.4669 106.812 26.3405 112.956 32.485C119.101 38.6295 123.974 45.9246 127.299 53.9533C130.623 61.982 132.332 70.587 132.33 79.2767ZM129.507 79.2767C129.491 62.4802 122.813 46.376 110.938 34.4972C99.0634 22.6184 82.9613 15.9352 66.1649 15.9138C49.3685 15.9352 33.2664 22.6184 21.3914 34.4972C9.51646 46.376 2.8384 62.4802 2.82239 79.2767C2.84373 96.0697 9.52415 112.169 21.3985 124.043C33.2729 135.918 49.372 142.598 66.1649 142.619C82.9578 142.598 99.0568 135.918 110.931 124.043C122.806 112.169 129.486 96.0697 129.507 79.2767Z" fill="#F6F8FA"/>
<path d="M2.65918 79.1346C2.6552 91.6715 6.36914 103.928 13.3313 114.354C20.2935 124.78 30.1911 132.907 41.7725 137.707C53.3538 142.508 66.0986 143.766 78.395 141.322C90.6914 138.879 101.987 132.844 110.853 123.98C119.72 115.117 125.758 103.823 128.205 91.5276C130.653 79.232 129.399 66.4867 124.602 54.9038C119.805 43.3209 111.681 33.4206 101.258 26.4551C90.834 19.4896 78.5788 15.7717 66.042 15.7717C49.2353 15.7717 33.1167 22.4468 21.2307 34.3291C9.3447 46.2113 2.66453 62.3279 2.65918 79.1346Z" fill="#F6F8FA"/>
<path d="M78.5176 143.044L41 111.816L51.2211 105.566L66.5426 42.3445L130.006 95.3451C127.074 107.482 120.624 118.483 111.464 126.969C102.304 135.454 90.843 141.046 78.5176 143.044Z" fill="#E3E8EF"/>
<path d="M62.3962 108.326H60.6827C60.215 108.326 59.8359 108.706 59.8359 109.173V127.882C59.8359 128.349 60.215 128.728 60.6827 128.728H62.3962C62.8639 128.728 63.243 128.349 63.243 127.882V109.173C63.243 108.706 62.8639 108.326 62.3962 108.326Z" fill="white"/>
<path d="M37.7603 109.617C37.7758 109.854 37.8838 110.076 38.061 110.234C38.2382 110.393 38.4704 110.475 38.7078 110.464H88.7044C88.9418 110.475 89.174 110.393 89.3512 110.234C89.5283 110.076 89.6363 109.854 89.6519 109.617V102.823C89.6468 102.705 89.6181 102.589 89.5674 102.482C89.5167 102.375 89.4451 102.279 89.3568 102.2C89.2684 102.121 89.1652 102.061 89.0532 102.022C88.9411 101.984 88.8225 101.969 88.7044 101.977H38.7078C38.5896 101.969 38.471 101.984 38.359 102.022C38.2469 102.061 38.1437 102.121 38.0554 102.2C37.9671 102.279 37.8955 102.375 37.8448 102.482C37.7941 102.589 37.7654 102.705 37.7603 102.823V109.617Z" fill="black"/>
<path d="M63.9481 123.326H58.8477V141.893H63.9481V123.326Z" fill="#D8D2CA"/>
<path d="M64.0687 138.164C65.8227 139.595 80.7612 151.187 80.7612 152.014V158.787H77.8984V153.042L61.7705 143.506V138.768L64.0687 138.164Z" fill="#D8D2CA"/>
<path d="M60.0956 137.66C58.3618 139.091 43.4233 150.683 43.4233 151.51V158.283H46.3667V152.598L62.4946 143.042V138.264L60.0956 137.66Z" fill="#D8D2CA"/>
<path d="M60.4204 137.76L38.2646 143.909V150.078H40.2403V146.57L58.6665 142.478L60.4204 137.76Z" fill="#D8D2CA"/>
<path d="M63.2817 137.76L85.4375 143.909V150.078H83.4618V146.57L65.0356 142.478L63.2817 137.76Z" fill="#D8D2CA"/>
<path d="M90.5608 139.344C90.0691 144.461 88.6146 148.63 88.0205 153.444C87.3239 159.144 104.594 157.775 108.507 158.298C112.42 158.822 111.99 154.773 105.332 152.256C95.4981 148.65 97.0141 141.983 97.0141 141.983L90.5608 139.344Z" fill="#D8D2CA"/>
<path d="M108.245 158.299C111.784 158.797 112.699 155.109 106.211 152.816C104.054 154.371 98.8064 153.395 96.1824 152.816C92.8668 152.059 91.0971 150.544 88.4324 150.344C88.3307 151.361 88.0663 152.338 88.0053 153.474C87.6595 159.136 104.461 157.76 108.245 158.299Z" fill="#D8D2CA"/>
<path d="M68.5388 81.8616C71.3813 82.3656 103.388 88.5933 104.598 88.9763C105.585 89.402 106.402 90.1444 106.92 91.0863C107.439 92.0281 107.629 93.1158 107.46 94.1776C107.319 95.4275 100 148.344 100 148.344L88.6096 146.591C87.5048 135.485 89.9174 111.619 92.0782 100.669C92.0782 100.669 46 103.917 46 97.3445C46 90.7723 68.5388 81.8616 68.5388 81.8616Z" fill="#3F3F6B"/>
<path d="M97.5608 144.344C97.0691 149.461 95.6146 153.63 95.0205 158.444C94.3239 164.144 111.594 162.775 115.507 163.298C119.42 163.822 118.99 159.773 112.332 157.256C102.498 153.65 104.014 146.983 104.014 146.983L97.5608 144.344Z" fill="#D8D2CA"/>
<path d="M97.5208 103.311C97.5208 103.311 47 106.617 47 100.045C47 96.0133 51.536 87.5298 58.1283 84.3445C68.4703 85.9774 101.259 89.7998 110.794 93.0053C112.165 93.469 111.964 94.7794 112.286 95.364C113.859 98.2267 107.52 147.607 106.794 155.086L95.908 152.595C94.8165 141.481 95.3599 114.268 97.5208 103.311Z" fill="#4C4C78"/>
<path d="M97.5137 66.475C99.8321 66.2532 104.247 66.475 105.195 66.475C106.142 66.475 113.259 65.5476 114.246 65.7895C116.798 66.6982 119.284 67.7827 121.685 69.0353C121.685 69.0353 122.23 71.4747 119.125 70.4263C114.246 68.8135 111.928 70.4263 109.61 70.89C108.067 71.1345 106.495 71.1345 104.953 70.89C104.025 70.89 98.441 71.1319 98.441 71.1319L97.5137 66.475Z" fill="#EAA775"/>
<path d="M98.5815 65.7283L101.182 65.9097L101.646 73.5302L98.8638 73.7116L98.5815 65.7283Z" fill="black"/>
<path d="M66.8707 42.9282C69.2093 46.4159 74.3904 60.8303 76.0637 62.3423C79.8537 65.7897 99.429 65.2655 99.429 65.2655V75.3455C99.429 75.3455 75.7008 76.1519 69.6125 73.6521C65.5805 72.0191 53.8071 50.8713 55.9037 44.1177C58.2624 36.6182 66.8707 42.9282 66.8707 42.9282Z" fill="#BABCC8"/>
<path d="M35.2786 86.4732C35.257 88.5535 36.0587 90.5579 37.5088 92.0496C38.959 93.5413 40.94 94.3993 43.0201 94.4364L48.4834 94.2348C50.5589 94.0356 52.471 93.0221 53.801 91.4163C55.131 89.8105 55.7705 87.7431 55.5797 85.6668L54.4306 58.1282C54.4547 57.0897 54.2732 56.0566 53.8967 55.0884C53.5201 54.1202 52.9559 53.236 52.2365 52.4866C51.5171 51.7372 50.6567 51.1374 49.7046 50.7217C48.7526 50.306 47.7278 50.0825 46.6892 50.0642L41.246 50.2658C39.1769 50.4943 37.2823 51.5319 35.9754 53.1522C34.6686 54.7725 34.0558 56.8439 34.2707 58.9145L35.2786 86.4732Z" fill="black"/>
<path d="M142.995 80.2034H86.9307V85.7272H142.995V80.2034Z" fill="#D8D2CA"/>
<path d="M130.656 74.6792H95.3965V79.2757H130.656V74.6792Z" fill="#1BC98E"/>
<path d="M134.934 43.8219L126.117 77.9617L130.568 79.111L139.384 44.9712L134.934 43.8219Z" fill="#1BC98E"/>
<path d="M45.9445 50.7296C46.2873 38.8755 51.5288 37.1014 52.3352 36.7385L61.0645 38.5932C63.7861 39.5811 71.6686 67.6035 70.7211 72.2806C71.1243 77.6633 70.0155 82.3606 70.0961 84.9209C68.0801 84.679 45.9042 101.775 45.9042 101.775C45.9042 101.775 45.9042 89.3763 46.1461 81.4534C46.3881 73.5305 45.5817 62.9062 45.9445 50.7296Z" fill="#CBCDDA"/>
<path d="M62.1484 36.3445L67.0271 41.6062C67.0271 41.6062 70.8358 43.5919 71.1679 56.9682C71.5 70.3445 70.2527 83.5996 70.2527 83.5996L60.6566 89.3048L51 40.5176L56.1005 36.3445H62.1484Z" fill="#CBCDDA"/>
<path d="M91.5259 68.5717C94.0055 68.3297 98.723 68.5717 99.7108 68.5717C100.699 68.5717 108.38 67.5838 109.367 67.8257C112.083 68.8031 114.73 69.9615 117.29 71.2933C117.29 71.2933 117.875 73.8939 114.569 72.7851C109.367 71.0513 106.888 72.7851 104.489 73.2689C102.846 73.5344 101.172 73.5344 99.5294 73.2689C98.5415 73.2689 92.5944 73.531 92.5944 73.531L91.5259 68.5717Z" fill="#EEB68C"/>
<path d="M66.8508 29.3195C65.4537 30.5156 64.3785 32.0426 63.7235 33.7612C63.0684 35.4798 62.8545 37.3351 63.1011 39.1576C63.6051 41.98 62.6173 42.5244 58.3635 40.3672C54.6138 38.4722 53.9888 37.7263 51.5293 37.1013C53.2227 35.2063 55.5613 25.973 54.3718 20.0258C53.1824 14.0786 66.8508 29.3195 66.8508 29.3195Z" fill="#EEB68C"/>
<path d="M54.431 19.5417C53.7052 16.1548 65.1964 24.9446 68.926 28.5734L56.83 39.0969C55.1883 38.0166 53.3944 37.1877 51.5078 36.6374C53.3424 34.702 55.7616 25.4687 54.431 19.5417Z" fill="#EAA775"/>
<path d="M54.4321 11.5996C52.4161 20.8732 57.0731 31.3564 64.5121 32.8885C71.9511 34.4207 77.0112 27.6671 78.9466 18.3733C80.8819 9.07957 77.9184 2.40661 70.5601 0.874449C63.2017 -0.657712 56.2868 2.30581 54.4321 11.5996Z" fill="#EEB68C"/>
<path d="M78.1385 17.2244C78.1385 19.4621 76.7274 20.6314 77.7152 26.5786C77.4733 28.0704 73.6832 27.0826 72.9373 27.0826C72.1914 27.0826 78.1385 17.2244 78.1385 17.2244Z" fill="#EEB68C"/>
<path d="M63.5644 39.622L52.4159 33.8562L51.0249 37.6664L63.5644 44.2588V39.622Z" fill="#BABCC8"/>
<path d="M64.2095 32.8885C64.9904 33.0594 65.7893 33.1339 66.5884 33.1103C59.7542 28.9372 66.2053 8.19253 68.4834 5.14837C67.4149 4.52341 71.7292 1.11637 70.3381 0.874449C62.9596 -0.657712 56.1052 2.30581 54.2102 11.5996C52.3151 20.8933 56.831 31.3564 64.2095 32.8885Z" fill="#EAA775"/>
<path d="M70.9019 11.8415L79.3893 10.2287C80.4981 8.49496 78.2402 1.15672 66.87 0.148717C56.4473 -0.919763 54.4313 3.91864 52.879 9.86584C51.3266 15.813 54.5522 26.6994 54.5522 26.6994C54.5522 26.6994 63.3823 22.9698 62.1727 20.6514C61.4268 19.3007 60.6809 14.6034 62.7976 14.7042C63.8056 14.7042 64.5314 16.0751 64.5314 16.0751L70.9019 11.8415Z" fill="#393C40"/>
<path d="M79.4497 9.88471C80.1957 9.88471 83.2801 12.5458 80.8811 16.5577C76.4288 15.4567 72.0407 14.1107 67.7368 12.5257L71.9301 9.54199L79.4497 9.88471Z" fill="#393C40"/>
<path d="M93.3794 67.866L95.98 68.0474L96.4437 75.6679L93.6616 75.8493L93.3794 67.866Z" fill="black"/>
<path d="M58.0802 43.3108C60.5599 47.0202 66.8901 62.5434 68.6642 64.1562C72.6962 67.8253 93.5012 66.8375 93.5012 66.8375L94.2471 77.482C94.2471 77.482 68.261 78.9133 61.7896 76.2522C57.5762 74.5185 45.4399 51.8385 47.6777 44.6615C50.1775 36.6176 58.0802 43.3108 58.0802 43.3108Z" fill="#CBCDDA"/>
</svg>
