<svg viewBox="0 0 182 163" fill="none" xmlns="http://www.w3.org/2000/svg">
<g style="mix-blend-mode:soft-light" opacity="0.6">
<path d="M10.7939 81.3053C10.7939 62.5808 18.2523 44.6231 31.5284 31.3829C44.8044 18.1426 62.8106 10.7043 81.5857 10.7043C100.363 10.7043 118.371 18.142 131.651 31.3816C144.93 44.6212 152.393 62.5788 152.399 81.3053C152.393 100.032 144.93 117.989 131.651 131.229C118.371 144.469 100.363 151.906 81.5857 151.906C62.8106 151.906 44.8044 144.468 31.5284 131.228C18.2523 117.987 10.7939 100.03 10.7939 81.3053ZM13.8137 81.3053C13.8365 99.2241 20.9841 116.403 33.6889 129.073C46.3937 141.744 63.6185 148.872 81.5857 148.895C99.5567 148.878 116.787 141.752 129.497 129.081C142.206 116.409 149.356 99.2278 149.379 81.3053C149.356 63.3828 142.206 46.2011 129.497 33.53C116.787 20.8588 99.5567 13.733 81.5857 13.716C63.6185 13.7387 46.3937 20.867 33.6889 33.5376C20.9841 46.2081 13.8365 63.3865 13.8137 81.3053Z" fill="none"/>
</g>
<path d="M147.649 97.249C156.37 60.9357 133.923 24.4469 97.5119 15.749C61.1004 7.05104 24.513 29.4377 15.7916 65.751C7.07013 102.064 29.5173 138.553 65.9287 147.251C102.34 155.949 138.928 133.562 147.649 97.249Z" fill="#F6F8FA"/>
<path d="M54.2357 143.344L131.024 76.228L99.9419 57.4053L71.5993 32.0432L14.0513 80.1C14.0513 80.5733 14.0513 81.0465 14.0513 81.5413C14.0411 94.6146 17.8315 107.41 24.9635 118.379C32.0956 129.348 42.2634 138.02 54.2357 143.344Z" fill="#E3E8EF"/>
<path d="M141.916 53.8559C143.191 54.5079 144.585 54.8957 146.014 54.996C140.255 58.1582 136.006 64.0308 134.711 65.3215L135.423 66.0314C136.976 64.4396 141.894 57.5989 148.365 54.996C154.491 54.4152 160.875 49.6826 164.801 42.3472C166.908 38.5036 168.048 34.2073 168.123 29.8274C168.123 24.2129 165.966 19.2868 161.652 16.9205C160.031 16.0951 158.23 15.6814 156.411 15.7159C149.94 15.7159 142.973 20.6635 138.767 28.4937C136.626 32.3572 135.471 36.6861 135.402 41.0995C135.402 42.6961 135.605 44.2863 136.006 45.8321C136.006 46.1762 136.006 46.4989 136.006 46.8646C135.975 52.9104 134.652 58.8802 132.123 64.375L132.986 64.8483C135.401 59.7269 136.765 54.1757 136.998 48.521C138.013 50.7845 139.739 52.6571 141.916 53.8559ZM142.627 52.5006C138.961 50.5431 136.998 46.2408 136.998 41.0995C137.059 36.9837 138.125 32.9448 140.104 29.3327C144.051 21.7391 150.716 17.2217 156.411 17.2432C157.981 17.233 159.529 17.6099 160.919 18.3403C164.607 20.2763 166.635 24.5786 166.635 29.8274C166.557 33.96 165.477 38.0123 163.485 41.6373C159.538 49.0803 152.852 53.6192 147.2 53.5977C145.608 53.6159 144.037 53.2389 142.627 52.5006Z" fill="black"/>
<path d="M92.2193 56.1577C97.7627 61.6001 96.9647 61.256 101.343 64.3966C105.722 67.5373 115.018 74.1414 116.917 74.3135C118.815 74.4856 122.568 72.6356 125.199 73.7111L124.466 75.8623C124.466 75.8623 128.78 77.3251 130.031 78.0135C131.282 78.7018 130.786 80.2937 129.19 79.8635C127.594 79.4332 128.111 79.4978 128.111 79.4978C128.167 79.9731 128.124 80.4547 127.987 80.9133C127.85 81.3719 127.621 81.7978 127.313 82.1652C126.084 83.5634 125.156 84.8326 123.539 84.3163C121.921 83.8001 114.738 80.014 113.66 79.8419C112.581 79.6698 93.8155 72.9582 91.2918 70.5274C88.7682 68.0966 80.1403 60.9333 79.2344 58.9327C78.3284 56.9321 92.2193 56.1577 92.2193 56.1577Z" fill="#BC8E6F"/>
<path d="M132.764 62.4852L121.25 85.772L125.138 87.6844L136.653 64.3975L132.764 62.4852Z" fill="black"/>
<path d="M90.2991 99.052C94.0954 103.72 97.4387 109.937 96.5543 113.701C95.67 117.466 83.1811 138.139 81.6281 143.688C80.0751 149.238 82.8576 152.293 84.1949 154.444C85.5322 156.595 83.3968 159.241 78.2848 156.595C73.1728 153.95 69.6569 154.595 69.3765 150.594C69.0961 146.593 71.8139 145.926 73.8199 140.161C75.8259 134.396 77.3789 123.941 79.8378 120.176C82.2968 116.412 81.4771 114.433 79.8378 112.647C78.1985 110.862 75.5239 107.076 75.5239 107.076L90.2991 99.052Z" fill="#BC8E6F"/>
<path d="M73.4527 77.8848C75.6096 81.133 75.2214 79.3691 79.3843 83.8004C83.5473 88.2318 96.3165 103.333 96.3165 106.603C96.3165 109.872 88.5946 108.754 85.5317 112.389C82.4688 116.025 80.9158 116.39 79.1039 116.39C77.2921 116.39 65.1699 99.9341 63.0992 97.869C61.0285 95.8039 61.8697 81.6493 61.8697 81.6493L73.4527 77.8848Z" fill="#3F3F6B"/>
<path d="M72.289 143.559C70.6497 145.216 67.9751 149.023 67.9751 151.562C67.9751 154.1 72.289 155.541 75.4382 156.445C78.5874 157.348 85.6191 160.618 87.6251 159.887C89.6311 159.155 91.2704 157.735 88.8977 156.445C86.7349 155.028 84.7253 153.392 82.9013 151.562C82.7808 152.022 82.5534 152.447 82.2377 152.803C81.922 153.159 81.5267 153.437 81.0838 153.613C80.6408 153.788 80.1626 153.858 79.6878 153.816C79.2129 153.773 78.7547 153.62 78.3501 153.369C76.3284 152.73 74.604 151.388 73.4914 149.587C72.3789 147.787 71.9521 145.647 72.289 143.559Z" fill="#282828"/>
<path d="M50.9564 118.068C48.0661 122.37 46.0601 123.403 42.0481 126.286C38.0362 129.168 17.5665 138.956 16.2076 143.624C15.4053 146.372 15.7231 149.325 17.092 151.841C17.092 151.841 11.2897 156.273 8.18367 150.508C5.07764 144.742 5.42275 140.956 6.86792 140.053C12.1054 135.344 16.9461 130.214 21.3412 124.715C24.6845 120.284 32.4712 118.498 35.8145 116.111C39.1578 113.723 50.9564 118.068 50.9564 118.068Z" fill="#D8A380"/>
<path d="M50.244 76.7444C46.4046 79.9926 45.6496 84.7467 44.7653 92.7275C43.8809 100.708 34.5197 111.593 32.7294 114.54C30.9391 117.487 44.8084 126.156 51.3225 124.371C57.8365 122.586 69.1606 102.859 71.2313 98.9658C73.302 95.0722 71.2313 78.6159 69.6783 76.5293C68.1253 74.4426 50.244 76.7444 50.244 76.7444Z" fill="#4C4C78"/>
<path d="M8.93812 139.064C7.40667 138.504 6.4576 139.644 5.31441 141.344C4.17121 143.043 2.83389 144.226 3.3947 145.646C3.95551 147.066 6.65173 149.26 7.98905 151.734C9.32637 154.208 10.8578 156.681 14.2874 156.897C17.717 157.112 22.1172 157.649 20.3916 154.014C19.3735 151.891 17.9525 149.984 16.2071 148.4C16.2071 148.4 13.5325 151.067 11.8932 149.346C10.2539 147.625 8.93812 139.064 8.93812 139.064Z" fill="#282828"/>
<path d="M71.6418 99.3961C69.4848 103.225 58.2685 123.059 51.7329 124.801C49.4465 125.425 44.96 123.833 41.854 122.65C44.6796 120.499 48.3249 114.54 51.6898 109.571C58.7647 99.0519 54.1703 90.017 55.3998 84.424L71.7065 83.6711C72.5693 89.3072 72.9575 97.0298 71.6418 99.3961Z" fill="#3F3F6B"/>
<path d="M96.4682 52.0059C102.486 56.9105 101.666 56.6524 106.304 59.3843C110.941 62.1163 120.82 67.8384 122.74 67.8384C124.66 67.8384 128.197 65.6872 130.937 66.4616L130.397 68.6128C130.397 68.6128 134.711 69.6884 136.135 70.2477C137.558 70.807 137.084 72.3988 135.445 72.1622C133.805 71.9256 134.366 71.8825 134.366 71.8825C134.548 72.8313 134.347 73.8135 133.805 74.6145C132.705 76.1203 131.886 77.4755 130.246 77.1959C128.607 76.9162 121.079 73.6465 119.979 73.6465C118.879 73.6465 99.6173 68.6128 96.878 66.4186C94.1386 64.2244 84.8852 57.814 83.7852 55.964C82.6851 54.114 96.4682 52.0059 96.4682 52.0059Z" fill="#D8A380"/>
<path d="M88.5306 35.2703C90.8602 33.2985 93.0244 31.1402 95.0015 28.8168L89.5443 21.9331C89.5443 21.9331 78.4791 28.9674 77.2927 30.0645C76.1064 31.1616 88.5306 35.2703 88.5306 35.2703Z" fill="#BC8E6F"/>
<path d="M104.277 7.92903C101.02 1.58312 84.4115 -0.976756 83.182 9.82205C81.0251 29.5051 93.2982 31.6993 93.2982 31.6993C97.4181 31.4627 98.475 31.8929 101.408 30.6237C102.854 29.9999 104.018 27.8272 104.816 24.9877C106.111 24.665 107.47 24.1487 107.297 23.2453C106.7 22.2391 106.181 21.1892 105.744 20.1046C106.345 15.9881 105.838 11.7864 104.277 7.92903Z" fill="#D8A380"/>
<path d="M82.4691 26.687C78.6081 28.3434 57.1678 31.269 46.5986 81.8426C46.5986 81.8426 56.8874 93.1147 67.4565 90.8345C67.7369 86.274 91.7009 48.973 89.5439 36.7974C88.4439 31.1614 82.4691 26.687 82.4691 26.687Z" fill="#CBCDDA"/>
<path d="M95.0155 5.49836C89.5152 4.57336 82.6776 3.5408 82.0737 9.80067C80.154 28.064 92.1898 31.6779 92.1898 31.6779L97.0646 31.4843C91.478 24.364 90.5505 9.478 95.0155 5.49836Z" fill="#BC8E6F"/>
<path d="M87.3868 5.36931C88.8104 3.43327 89.0476 1.47572 94.2244 1.8199C99.4011 2.16409 101.213 1.66932 104.319 5.28326C105.326 6.95826 105.772 8.90989 105.592 10.8548C104.579 10.5886 103.527 10.5084 102.486 10.6181C101.278 10.8763 99.6815 10.1019 97.9559 12.2315C97.0491 13.4156 96.389 14.7687 96.0147 16.2111C96.0147 16.2111 90.7732 17.7815 90.5791 19.4594C90.385 21.1373 84.6906 25.1384 84.6906 25.1384C83.6063 21.7731 82.692 18.3556 81.9512 14.8989C80.2472 5.92861 87.0201 5.82105 87.3868 5.36931Z" fill="#5E2014"/>
<path d="M90.3648 41.0994C89.7393 37.593 83.5488 35.9366 81.4781 33.7639C71.7717 37.8941 58.0749 60.9115 53.6963 87.5428C66.4656 96.4486 78.5662 86.3167 80.5074 85.8864C77.9622 72.3772 92.5218 53.2319 90.3648 41.0994Z" fill="#BABCC8"/>
<path d="M113.508 5.43384C113.937 5.49748 114.343 5.66741 114.688 5.92806C115.034 6.1887 115.308 6.53172 115.486 6.92564C115.665 7.31957 115.741 7.75181 115.708 8.18272C115.675 8.61363 115.534 9.02942 115.299 9.39197C113.896 11.7797 112.624 11.285 110.337 11.3925C108.104 11.4786 105.867 11.3778 103.651 11.0914L113.508 5.43384Z" fill="#BABCC8"/>
<path d="M83.5271 24.1056C85.1232 22.9224 93.4923 13.78 93.4923 13.78C93.4923 13.78 101.861 14.9632 104.644 13.3713C107.426 11.7795 109.734 5.62714 114.501 5.62714C111.637 5.25885 108.737 5.25885 105.873 5.62714C104.618 4.04882 103.044 2.75215 101.252 1.82178C99.4609 0.891412 97.4928 0.348249 95.4767 0.227744C92.0338 0.0382409 88.628 1.01629 85.8134 3.00273C84.2173 4.59459 79.8386 7.75679 80.2269 13.3283C80.6259 17.0981 81.7461 20.7566 83.5271 24.1056Z" fill="#CBCDDA"/>
<path d="M93.2111 17.2861C92.4346 16.4902 91.8522 15.135 90.7522 16.1245C89.6521 17.114 88.1638 21.8035 90.0404 23.4169C91.9169 25.0303 93.2111 17.2861 93.2111 17.2861Z" fill="#BC8E6F"/>
<path d="M88.1644 64.0096C83.0524 59.7073 75.2226 51.1027 66.5947 50.3713C66.5947 50.3713 71.5342 40.2824 75.2226 36.9696C78.0051 34.4528 84.174 29.5481 88.9841 33.8289C91.5724 36.1307 97.008 48.1986 101.387 54.48C102.142 55.6632 88.1644 64.0096 88.1644 64.0096Z" fill="#CBCDDA"/>
<path d="M170.777 45.4019C170.777 46.4443 171.087 47.4633 171.667 48.33C172.248 49.1967 173.073 49.8722 174.039 50.2711C175.005 50.67 176.067 50.7743 177.092 50.571C178.118 50.3676 179.059 49.8657 179.798 49.1286C180.537 48.3915 181.041 47.4525 181.244 46.4301C181.448 45.4078 181.344 44.3481 180.944 43.3851C180.544 42.422 179.866 41.5989 178.997 41.0198C178.128 40.4407 177.107 40.1316 176.061 40.1316C174.662 40.1373 173.321 40.6943 172.331 41.6815C171.341 42.6686 170.783 44.0059 170.777 45.4019Z" fill="#1BC98E"/>
</svg>
