<svg viewBox="0 0 164 210" fill="none" xmlns="http://www.w3.org/2000/svg">
<path d="M146.12 124.049C146.12 137.706 142.069 151.056 134.481 162.411C126.892 173.766 116.107 182.616 103.488 187.842C90.8686 193.069 76.9829 194.436 63.5866 191.772C50.1903 189.107 37.885 182.531 28.2267 172.874C18.5685 163.218 11.9912 150.914 9.32651 137.52C6.66182 124.126 8.02943 110.242 13.2564 97.6252C18.4834 85.0081 27.335 74.2241 38.6919 66.6369C50.0487 59.0497 63.4008 55 77.0595 55C95.3754 55 112.941 62.2748 125.892 75.2241C138.844 88.1733 146.12 105.736 146.12 124.049Z" fill="#F6F8FA"/>
<path d="M38.0956 181L76.9995 140.697L51.5617 80L7.99951 124.105C7.99951 124.319 7.99951 124.553 7.99951 124.768C7.9987 136.719 10.8473 148.409 16.1946 158.4C21.5419 168.391 29.1546 176.247 38.0956 181Z" fill="#E3E8EF"/>
<path d="M87.8597 178.767L92.6702 190.509L104.79 198.025C104.79 198.025 109 201.181 98.3451 200.016C94.8069 199.481 91.231 199.236 87.6529 199.283C86.5255 199.152 84.5524 197.893 84.3833 193.816C84.2517 190.303 77.7876 178.785 77.7876 178.785L87.8597 178.767Z" fill="#D8D2CA"/>
<path d="M102.228 200.476C94.5453 199.225 90.4986 201.26 87.0189 200.308C84.0865 199.505 84.3211 197.359 84.0083 193.01C84.0083 192.525 94.7603 193.178 102.6 195.586C102.6 195.586 115.013 202.547 102.228 200.476Z" fill="#D8D2CA"/>
<path d="M73.4573 122.097L73.562 124.581C73.562 124.581 84.2729 151.561 85.8624 156.824C87.4519 162.087 95.901 187.144 96.9493 190.529C97.9976 193.914 85.9626 192.952 84.1177 193.029C80.5693 183.03 76.4545 173.264 71.7959 163.785C69.8076 160.46 58.9154 141.893 58.9154 141.893L62.1408 120.203L73.4573 122.097Z" fill="#3F3F6B"/>
<path d="M46.4158 190.861C45.9648 195.633 44.6306 199.522 44.0857 204.013C43.4468 209.33 59.2877 208.052 62.8768 208.541C66.4659 209.029 66.0713 205.253 59.9642 202.904C50.9445 199.541 52.335 193.322 52.335 193.322L46.4158 190.861Z" fill="#D8D2CA"/>
<path d="M62.7074 208.578C65.9771 209.048 66.8227 205.572 60.8283 203.412C58.8364 204.877 53.9883 203.956 51.5643 203.412C48.5013 202.698 46.8665 201.27 44.4048 201.082C44.3109 202.04 44.0666 202.961 44.0102 204.032C43.6908 209.367 59.2123 208.071 62.7074 208.578Z" fill="#D8D2CA"/>
<path d="M71.1109 119.025C70.4601 123.025 65.7555 158.215 64.2567 163.563C62.7578 168.91 57.4408 200.535 57.0054 202.861C52.0961 202.671 44.6549 201.857 44.6549 201.857C44.6549 201.857 44.7633 183.33 46.2675 165.126C47.0961 153.493 47.1267 141.828 46.359 130.207C43.1666 97.4026 63.1177 116.979 63.1177 116.979L71.1109 119.025Z" fill="#4C4C78"/>
<path d="M64.0054 164.361C65.5314 159.257 70.5011 124.891 71.1834 121.03L63.4668 118.978L63.0511 118.584L49.0053 202.361C50.6003 202.552 55.541 202.789 57.0052 202.861C57.4506 200.545 62.4991 169.463 64.0054 164.361Z" fill="#3F3F6B"/>
<path d="M154.662 171.082C154.662 165.446 153.891 171.871 156.203 167.043C156.203 167.043 157.725 170.8 156.334 173.168C154.944 175.535 154.662 171.082 154.662 171.082Z" fill="#BABCC8"/>
<path d="M122.698 185.812C123.619 186.413 120.65 195.338 120.612 195.958C120.589 196.833 120.765 197.702 121.126 198.499C121.487 199.296 122.025 200.001 122.698 200.561C124.193 201.815 125.954 202.714 127.847 203.191C128.955 203.342 128.128 204.3 124.915 204.3C121.702 204.3 117.699 198.889 117.286 197.367C116.873 195.845 118.526 190.96 117.549 190.547C115.462 188.952 113.473 187.233 111.592 185.399C113.256 184.303 115.22 183.753 117.211 183.827C119.202 183.902 121.12 184.595 122.698 185.812Z" fill="#BABCC8"/>
<path d="M135.213 189.288C131.661 195.732 129.369 195.469 129.782 200.955C129.937 202.246 130.266 203.51 130.759 204.713C130.759 204.713 133.616 203.999 133.822 205.822C133.959 206.461 133.859 207.129 133.541 207.7L129.237 207.569C129.237 207.569 127.152 201.932 127.001 200.899C126.851 199.866 129.519 188.104 129.519 188.104L135.213 189.288Z" fill="#BABCC8"/>
<path d="M146.005 174.966L145.641 175.861C144.9 175.159 108.487 133.493 107.005 132.773L107.2 131.861C109.07 132.861 145.398 174.545 145.969 175.018L146.005 174.966Z" fill="#1BC98E"/>
<path d="M162.967 180.101C161.483 178.222 159.623 178.222 158.89 176.024C158.157 173.825 155.131 170.105 152.219 170.105C149.306 170.105 147.765 171.984 146.281 173.074C144.796 174.163 139.986 172.322 138.501 171.946C137.017 171.571 119.222 168.997 112.194 172.698C106.989 174.182 103.926 174.577 102.685 172.04C100.036 166.404 102.554 161.575 107.364 164.525C107.74 161.181 101.032 159.396 99.5848 165.634C97.7057 173.825 103.663 178.597 105.88 178.597C105.504 180.833 101.069 189.72 99.9606 192.313C98.852 194.906 95.883 196.803 95.5072 198.682C95.1313 200.561 93.628 208.339 95.5072 208.696C97.3863 209.053 101.802 209.448 101.802 208.339C101.802 207.231 97.6681 206.874 97.7245 204.995C97.9688 197.668 103.832 196.615 105.241 194.755C106.65 192.895 110.878 192.219 115.388 186.413C117.418 183.745 122.905 187.578 127.283 189.795C130.325 191.201 133.585 192.078 136.923 192.388L139.61 195.676C143.045 198.627 146.758 201.238 150.697 203.473C154.774 205.352 157.593 203.811 153.14 201.219C149.546 198.937 146.368 196.059 143.744 192.707C142.635 191.223 144.496 184.178 145.98 183.069C147.465 181.961 148.573 180.063 152.632 181.923C156.691 183.783 158.533 184.516 160.562 183.295C163.569 181.491 162.967 180.101 162.967 180.101Z" fill="#CBCDDA"/>
<path d="M153.14 171.909C152.313 170.237 153.703 166.479 153.29 165.934C152.877 165.389 147.296 171.571 148.141 172.604C148.987 173.637 153.14 171.909 153.14 171.909Z" fill="#CBCDDA"/>
<path d="M61.1518 60.1652C57.3259 63.0615 32.5706 81.8864 31.6678 86.7496C30.7651 91.6128 40.2591 109.695 44.8455 115.825C49.4319 121.956 51.9229 113.711 51.9229 113.711C51.9229 113.711 41.2362 92.8445 42.258 89.9847C43.2797 87.1249 58.5897 81.9096 60.5387 80.1337C62.4878 78.3578 61.1518 60.1652 61.1518 60.1652Z" fill="#865029"/>
<path d="M70.7882 63.0248C72.2255 60.0829 73.4601 56.9367 74.4792 53.6189L67.6585 46.1315C67.6585 46.1315 60.1865 57.2284 59.478 58.8182C58.7694 60.4079 70.7882 63.0248 70.7882 63.0248Z" fill="#865029"/>
<path d="M86.0309 29.9897C83.2434 23.289 67.0833 19.6497 65.1701 30.628C61.7668 50.6216 73.6666 53.6355 73.6666 53.6355C77.7316 53.6514 78.7425 54.1581 81.73 53.0439C83.6219 51.7779 84.9581 49.7882 85.4464 47.5095C86.7184 47.2589 88.109 46.8168 87.9785 45.8577C87.4709 44.7839 87.0295 43.6775 86.6569 42.5451C87.5144 38.3702 87.2985 34.0397 86.0309 29.9897Z" fill="#9D5F32"/>
<path d="M85.2633 28.3703C80.0598 26.3155 68.829 23.6861 66.8666 29.7623C60.5826 48.6536 73.0003 53.5 73.0003 53.5L78.0001 53.5C74.1194 45.2806 80.1039 31.3531 85.2633 28.3703Z" fill="#865029"/>
<path d="M63.8698 51.2142C60.5562 54.1458 40.1068 64.13 46.2049 118.297C46.2049 118.297 67.1978 126.148 77.0054 120.361C75.7448 115.589 80.3847 70.5172 74.2232 59.064C71.3421 53.7259 63.8698 51.2142 63.8698 51.2142Z" fill="#CBCDDA"/>
<path d="M70.198 25.9829C71.7841 24.0907 72.1815 23.1006 77.5479 23.7971C82.9143 24.4935 84.8313 24.1284 87.8074 28.0168C88.7486 29.801 89.0926 30.8306 88.7904 32.8156C87.747 32.4724 86.6487 32.3198 85.5501 32.3655C84.2758 32.55 82.6649 31.65 80.728 33.7413C79.7033 34.8876 78.9208 36.2229 78.426 37.6697C78.426 37.6697 72.8882 38.9556 72.5778 40.6412C72.2675 42.3268 66.0543 46.0723 66.0543 46.0723C65.1448 42.5792 64.4145 39.0437 63.8663 35.4793C62.7728 26.1076 69.8317 26.4246 70.198 25.9829Z" fill="#502F18"/>
<path d="M95.9597 28.0017C96.3806 28.096 96.7715 28.2945 97.0968 28.5793C97.422 28.8641 97.6715 29.2261 97.8225 29.6325C97.9735 30.039 98.0213 30.477 97.9615 30.9069C97.9018 31.3368 97.7363 31.745 97.4802 32.0944C95.9399 34.3721 94.6875 33.8171 92.4162 33.7588C90.1974 33.7026 87.9874 33.4606 85.8088 33.0352L95.9597 28.0017Z" fill="#BABCC8"/>
<path d="M64.4539 45.0321C66.1523 43.9433 75.2244 35.2721 75.2244 35.2721C75.2244 35.2721 83.6539 37.0282 86.6078 35.5842C89.5617 34.1402 92.2575 28.1095 97.1249 28.4197C94.2367 27.8676 91.2898 27.6797 88.3549 27.8607C87.157 26.2067 85.6218 24.8191 83.8484 23.7876C82.075 22.7561 80.103 22.1037 78.0598 21.8725C74.5695 21.4646 71.0441 22.2371 68.0579 24.0642C66.3332 25.5648 61.6793 28.4673 61.7175 34.0847C61.9204 37.8713 62.8489 41.5862 64.4539 45.0321Z" fill="#CBCDDA"/>
<path d="M74.3935 39.1911C73.686 38.3128 73.1809 36.9211 72.0607 37.8583C70.9405 38.7956 69.1373 43.4606 70.8706 45.2156C72.6039 46.9706 74.3935 39.1911 74.3935 39.1911Z" fill="#865029"/>
<path d="M75.6738 71.4583C74.1191 68.7944 68.1501 69.3844 65.7036 68.2322C58.2507 74.6136 52.8201 98.3101 56.5052 121.361C70.3934 124.654 75.3955 121.297 77.0049 120.361C75.7078 107.534 81.0525 80.6956 75.6738 71.4583Z" fill="#BABCC8"/>
<path d="M72.2089 64.7533C68.973 61.0078 62.3282 63.8857 62.007 67.5678C61.6859 71.2498 71.7396 96.5586 74.8274 99.7116C77.9151 102.865 95.0089 121.677 98.0966 124.301C101.184 126.925 102 121.317 102 121.317C102 121.317 83.7201 96.2623 82.0897 89.3426C76.7788 68.3507 72.2089 64.7533 72.2089 64.7533Z" fill="#9D5F32"/>
<path d="M97.1932 116C100.74 117.93 103.975 122.655 105.58 124.297C107.185 125.938 107.496 129.532 107.496 132.305C107.496 135.078 102.992 134.235 100.429 131.484C97.5385 127.334 95.0535 122.986 92.9995 118.485L97.1932 116Z" fill="#9D5F32"/>
</svg>
