<svg viewBox="0 0 197 197" fill="none" xmlns="http://www.w3.org/2000/svg">
<path d="M147.008 147.315C174.072 120.195 174.072 76.2249 147.008 49.105C119.945 21.985 76.0662 21.985 49.0027 49.105C21.9393 76.2249 21.9393 120.195 49.0027 147.315C76.0662 174.435 119.945 174.435 147.008 147.315Z" fill="#F6F8FA"/>
<path d="M68.9987 161.535L145.752 96.1111L86.219 47.7007L28.8252 95.7355C28.8252 96.6414 28.8252 97.5694 28.8252 98.4974C28.8179 111.751 32.5971 124.731 39.716 135.901C46.8349 147.072 56.996 155.967 68.9987 161.535Z" fill="#E3E8EF"/>
<path d="M147.981 115.003C141.735 114.999 135.628 116.851 130.433 120.325C125.238 123.799 121.187 128.739 118.794 134.52C116.401 140.301 115.772 146.663 116.988 152.802C118.204 158.941 121.21 164.581 125.624 169.008C130.039 173.435 135.665 176.451 141.791 177.674C147.916 178.896 154.266 178.271 160.036 175.877C165.807 173.483 170.74 169.427 174.21 164.224C177.681 159.02 179.533 152.902 179.533 146.643C179.533 138.255 176.209 130.211 170.293 124.278C164.376 118.345 156.351 115.009 147.981 115.003ZM147.981 174.218C142.532 174.222 137.205 172.607 132.672 169.576C128.14 166.545 124.607 162.236 122.52 157.192C120.433 152.149 119.885 146.598 120.947 141.243C122.009 135.887 124.633 130.968 128.485 127.107C132.338 123.246 137.247 120.618 142.591 119.553C147.936 118.489 153.475 119.038 158.508 121.129C163.541 123.221 167.842 126.761 170.866 131.303C173.89 135.845 175.502 141.183 175.498 146.643C175.492 153.955 172.591 160.965 167.432 166.135C162.273 171.305 155.277 174.212 147.981 174.218Z" fill="#1BC98E"/>
<path d="M144.078 118.803L147.893 146.003L144.078 118.803Z" fill="#282828"/>
<path d="M148.067 147.305L151.86 174.46L148.067 147.305Z" fill="#282828"/>
<path d="M140.241 119.621L147.804 146.135L140.241 119.621Z" fill="black"/>
<path d="M148.156 147.305L155.697 173.819L148.156 147.305Z" fill="#282828"/>
<path d="M136.559 120.968L147.716 146.046L136.559 120.968Z" fill="#282828"/>
<path d="M148.244 147.305L159.268 172.383L148.244 147.305Z" fill="#282828"/>
<path d="M133.12 122.802L147.628 146.09L133.12 122.802Z" fill="#282828"/>
<path d="M148.312 147.173L162.82 170.461L148.312 147.173Z" fill="#282828"/>
<path d="M129.944 125.21L147.584 146.267L129.944 125.21Z" fill="#282828"/>
<path d="M148.399 147.129L166.039 168.163L148.399 147.129Z" fill="#282828"/>
<path d="M127.166 127.84L147.517 146.201L127.166 127.84Z" fill="#282828"/>
<path d="M148.442 147.062L168.816 165.446L148.442 147.062Z" fill="#282828"/>
<path d="M124.719 130.911L147.452 146.377L124.719 130.911Z" fill="#282828"/>
<path d="M148.51 146.997L171.221 162.463L148.51 146.997Z" fill="#282828"/>
<path d="M122.756 134.314L147.385 146.356L122.756 134.314Z" fill="#282828"/>
<path d="M148.53 146.908L173.181 158.95L148.53 146.908Z" fill="#282828"/>
<path d="M121.301 137.938L147.363 146.444L121.301 137.938Z" fill="#282828"/>
<path d="M148.575 146.842L174.637 155.326L148.575 146.842Z" fill="#282828"/>
<path d="M120.353 141.76L147.341 146.51L120.353 141.76Z" fill="#282828"/>
<path d="M148.619 146.731L175.673 151.503L148.619 146.731Z" fill="#282828"/>
<path d="M119.956 145.649L147.341 146.621L119.956 145.649Z" fill="#282828"/>
<path d="M148.619 146.665L176.004 147.615L148.619 146.665Z" fill="#282828"/>
<path d="M120.088 149.515L147.341 146.665L120.088 149.515Z" fill="#282828"/>
<path d="M148.619 146.576L175.849 143.704L148.619 146.576Z" fill="#282828"/>
<path d="M120.771 153.426L147.23 146.797L120.771 153.426Z" fill="#282828"/>
<path d="M148.598 146.488L175.189 139.859L148.598 146.488Z" fill="#282828"/>
<path d="M121.984 157.16L147.385 146.886L121.984 157.16Z" fill="#282828"/>
<path d="M148.553 146.4L173.976 136.103L148.553 146.4Z" fill="#282828"/>
<path d="M123.681 160.696L147.428 146.952L123.681 160.696Z" fill="#282828"/>
<path d="M148.53 146.311L172.255 132.59L148.53 146.311Z" fill="#282828"/>
<path d="M125.886 163.943L147.472 147.019L125.886 163.943Z" fill="#282828"/>
<path d="M148.487 146.245L170.073 129.343L148.487 146.245Z" fill="#282828"/>
<path d="M128.512 166.838L147.518 147.085L128.512 166.838Z" fill="#282828"/>
<path d="M148.421 146.179L167.471 126.426L148.421 146.179Z" fill="#282828"/>
<path d="M131.774 169.577L147.606 147.173L131.774 169.577Z" fill="#282828"/>
<path d="M148.332 146.112L164.163 123.708L148.332 146.112Z" fill="#282828"/>
<path d="M136.207 172.14L147.716 147.305L136.207 172.14Z" fill="#282828"/>
<path d="M148.244 146.046L159.753 121.123L148.244 146.046Z" fill="#282828"/>
<path d="M139.294 173.554L147.54 147.305L139.294 173.554Z" fill="#282828"/>
<path d="M147.915 146.157L156.183 119.952L147.915 146.157Z" fill="#282828"/>
<path d="M143.636 174.394L147.87 147.305L143.636 174.394Z" fill="#282828"/>
<path d="M148.091 146.002L152.303 118.869L148.091 146.002Z" fill="#282828"/>
<path d="M151.42 146.643C151.42 147.545 151.062 148.411 150.425 149.049C149.788 149.687 148.925 150.046 148.024 150.046C147.123 150.046 146.26 149.687 145.623 149.049C144.986 148.411 144.628 147.545 144.628 146.643C144.628 145.74 144.986 144.875 145.623 144.237C146.26 143.599 147.123 143.24 148.024 143.24C148.925 143.24 149.788 143.599 150.425 144.237C151.062 144.875 151.42 145.74 151.42 146.643Z" fill="black"/>
<path d="M147.981 178.239C155.583 178.239 162.93 175.49 168.672 170.498C174.415 165.505 178.167 158.604 179.239 151.062C180.312 143.52 178.633 135.844 174.511 129.443C170.388 123.042 164.1 118.346 156.8 116.218L154.595 119.797C158.839 120.863 162.767 122.927 166.056 125.818C169.344 128.709 171.897 132.344 173.503 136.422C175.109 140.499 175.721 144.902 175.29 149.264C174.859 153.626 173.396 157.823 171.022 161.505C168.649 165.188 165.434 168.25 161.643 170.438C157.853 172.626 153.596 173.878 149.227 174.088C144.857 174.298 140.501 173.462 136.519 171.647C132.536 169.833 129.043 167.094 126.328 163.656L124.124 167.235C127.073 170.686 130.732 173.455 134.85 175.355C138.968 177.254 143.447 178.238 147.981 178.239Z" fill="#1BC98E"/>
<path d="M142.468 100.552C142.131 100.258 141.924 99.842 141.891 99.3952C141.858 98.9484 142.002 98.5067 142.292 98.1657C142.292 98.1657 142.292 98.1657 142.579 97.6576C142.823 97.1236 142.951 96.5436 142.953 95.9562C142.96 95.1925 142.794 94.4371 142.468 93.7467C142.184 92.9499 141.678 92.2515 141.01 91.7345C140.341 91.2175 139.539 90.9036 138.698 90.8302C138.063 90.8257 137.446 91.0446 136.956 91.4488C136.605 91.7262 136.161 91.8559 135.716 91.8106C135.272 91.7652 134.862 91.5483 134.575 91.2058C134.291 90.853 134.158 90.4025 134.203 89.9518C134.248 89.501 134.469 89.0864 134.817 88.7974C135.946 87.99 137.312 87.5855 138.698 87.6485C140.2 87.7042 141.653 88.2008 142.876 89.0768C144.099 89.9528 145.038 91.1694 145.577 92.5757C146.075 93.6727 146.337 94.8618 146.349 96.0667C146.357 97.6628 145.838 99.2167 144.872 100.486C144.71 100.673 144.511 100.823 144.286 100.926C144.062 101.029 143.818 101.082 143.571 101.082C143.165 101.077 142.775 100.928 142.468 100.662V100.552Z" fill="black"/>
<path d="M132.414 83.561C133.56 84.0029 139.425 86.0578 140.793 86.7206C142.16 87.3835 142.424 88.1568 142.645 90.6536C142.865 93.1503 141.917 95.0726 140.793 95.404C139.668 95.7354 139.536 95.5587 138.742 94.6528C138.191 94.1004 137.044 89.8581 135.986 89.6593C133.453 88.9633 131.021 87.9382 128.754 86.6102C128.247 85.9252 132.414 83.561 132.414 83.561Z" fill="#F4CDBA"/>
<path d="M81.5469 79.7825C88.4262 81.7268 115.172 94.8072 116.825 100.839C118.479 106.871 116.473 107.247 113.099 111.489C109.527 116.085 90.6973 132.435 90.6973 132.435L82.7596 124.149C82.7596 124.149 101.193 107.07 100.399 106.805L84.281 100.508L81.5469 79.7825Z" fill="#3F3F6B"/>
<path d="M106.395 49.314C108.291 53.048 118.103 69.0449 122.447 72.9999C126.79 76.955 135.345 83.6277 135.345 83.6277L130.737 87.4722C130.737 87.4722 115.545 78.4574 113.23 76.4247C110.915 74.3919 101.235 58.616 101.235 58.616L106.395 49.314Z" fill="#BABCC8"/>
<path d="M105.249 50.6398C107.959 49.1951 110.547 47.5325 112.988 45.6684L109.019 37.7583C109.019 37.7583 96.7602 42.3762 95.3711 43.2158C93.982 44.0554 105.249 50.6398 105.249 50.6398Z" fill="#F4CDBA"/>
<path d="M126.305 27.0641C124.431 20.1704 108.666 14.2269 105.314 24.5674C99.0523 43.4587 110.65 48.1208 110.65 48.1208C114.707 48.7615 115.655 49.4023 118.786 48.7615C120.33 48.4522 121.917 46.552 123.196 43.9448C124.519 43.9448 125.974 43.6576 125.996 42.7296C125.616 41.6196 125.321 40.482 125.114 39.3269C126.593 35.4183 127.004 31.1851 126.305 27.0641Z" fill="#FFEADC"/>
<path d="M82.7592 120.791C80.8409 123.001 77.5556 123.266 79.2093 126.558C80.8629 129.85 86.3311 134.534 87.6982 135.904C89.0652 137.274 95.1067 141.671 96.5178 138.379C97.929 135.087 90.7409 124.083 90.7409 124.083L82.7592 120.791Z" fill="#250700"/>
<path d="M137.044 104.486L69.9267 104.817L69.8164 101.194H136.162L137.044 104.486Z" fill="black"/>
<path d="M91.9312 145.847L88.8443 147.284L63.7524 92.9296L66.8393 91.4934L91.9312 145.847Z" fill="black"/>
<path d="M100.353 147.151L97.9058 144.809L132.699 102.232L135.433 103.933L100.353 147.151Z" fill="black"/>
<path d="M149.258 145.295L146.48 146.245L132.5 91.5816L135.279 90.6094L149.258 145.295Z" fill="black"/>
<path d="M76.4529 94.9182C76.4529 96.5974 82.6708 100.331 80.8627 100.331L57.9096 97.9452C57.4796 97.9844 57.0462 97.9366 56.635 97.8045C56.2239 97.6725 55.8434 97.4589 55.5163 97.1765C55.1892 96.894 54.9222 96.5486 54.7311 96.1606C54.5399 95.7726 54.4286 95.3501 54.4038 94.9182C54.455 94.0602 54.8434 93.2576 55.484 92.686C56.1246 92.1145 56.9651 91.8207 57.8214 91.869H72.881C73.3167 91.8267 73.7566 91.8726 74.1742 92.0041C74.5919 92.1356 74.9789 92.35 75.3122 92.6345C75.6455 92.919 75.9183 93.2678 76.1142 93.6601C76.3102 94.0525 76.4254 94.4803 76.4529 94.9182Z" fill="#282828"/>
<path d="M49.1557 148.167L46.7744 145.272L71.2048 99.1157L73.5641 101.988L49.1557 148.167Z" fill="black"/>
<path d="M48.5743 115C42.3295 115 36.225 116.856 31.0326 120.333C25.8402 123.809 21.7933 128.751 19.4035 134.532C17.0137 140.314 16.3884 146.676 17.6067 152.813C18.825 158.951 21.8322 164.588 26.2479 169.013C30.6637 173.438 36.2897 176.452 42.4145 177.673C48.5393 178.894 54.8878 178.267 60.6573 175.872C66.4268 173.477 71.358 169.422 74.8274 164.219C78.2968 159.016 80.1486 152.898 80.1486 146.64C80.1486 138.249 76.8221 130.201 70.9007 124.267C64.9794 118.334 56.9484 115 48.5743 115ZM48.5743 174.215C43.1266 174.215 37.8013 172.596 33.272 169.563C28.7427 166.529 25.2129 162.218 23.1292 157.174C21.0455 152.13 20.5014 146.58 21.5658 141.226C22.6302 135.872 25.2552 130.955 29.1089 127.097C32.9625 123.238 37.8716 120.611 43.2152 119.549C48.5588 118.487 54.0967 119.036 59.1285 121.129C64.1602 123.221 68.4598 126.761 71.4832 131.302C74.5066 135.844 76.118 141.181 76.1137 146.64C76.1137 150.263 75.4012 153.851 74.0169 157.198C72.6327 160.545 70.6038 163.586 68.0462 166.147C65.4887 168.707 62.4526 170.738 59.1115 172.123C55.7704 173.507 52.1898 174.218 48.5743 174.215Z" fill="#1BC98E"/>
<path d="M44.5923 118.803L48.4068 146.003L44.5923 118.803Z" fill="#282828"/>
<path d="M48.5605 147.305L52.375 174.504L48.5605 147.305Z" fill="#282828"/>
<path d="M40.7549 119.621L48.3177 146.135L40.7549 119.621Z" fill="#282828"/>
<path d="M48.6494 147.305L56.2123 173.819L48.6494 147.305Z" fill="#282828"/>
<path d="M37.0728 120.968L48.2296 146.046L37.0728 120.968Z" fill="#282828"/>
<path d="M48.7373 147.305L59.8942 172.383L48.7373 147.305Z" fill="#282828"/>
<path d="M33.6328 122.802L48.1411 146.09L33.6328 122.802Z" fill="#282828"/>
<path d="M48.8252 147.173L63.3335 170.461L48.8252 147.173Z" fill="#282828"/>
<path d="M30.4575 125.21L48.0968 146.267L30.4575 125.21Z" fill="#282828"/>
<path d="M48.8911 147.129L66.5304 168.163L48.8911 147.129Z" fill="#282828"/>
<path d="M27.6587 127.84L48.01 146.201L27.6587 127.84Z" fill="#282828"/>
<path d="M48.9585 147.062L69.3319 165.446L48.9585 147.062Z" fill="#282828"/>
<path d="M25.2334 130.911L47.944 146.377L25.2334 130.911Z" fill="#282828"/>
<path d="M49.0239 146.997L71.7345 162.463L49.0239 146.997Z" fill="#282828"/>
<path d="M23.271 134.314L47.9219 146.356L23.271 134.314Z" fill="#282828"/>
<path d="M49.0464 146.908L73.6752 158.95L49.0464 146.908Z" fill="#282828"/>
<path d="M21.8159 137.938L47.7898 146.444L21.8159 137.938Z" fill="#282828"/>
<path d="M49.0898 146.842L75.1519 155.326L49.0898 146.842Z" fill="#282828"/>
<path d="M20.8662 141.76L47.7882 146.51L20.8662 141.76Z" fill="#282828"/>
<path d="M49.1118 146.731L76.0999 151.503L49.1118 146.731Z" fill="#282828"/>
<path d="M20.4712 145.649L47.79 146.621L20.4712 145.649Z" fill="#282828"/>
<path d="M49.1118 146.665L76.4527 147.615L49.1118 146.665Z" fill="#282828"/>
<path d="M20.6025 149.515L47.7891 146.709L20.6025 149.515Z" fill="#282828"/>
<path d="M49.1118 146.576L76.4527 143.704L49.1118 146.576Z" fill="#282828"/>
<path d="M21.3301 153.426L47.9213 146.797L21.3301 153.426Z" fill="#282828"/>
<path d="M49.1118 146.488L75.703 139.859L49.1118 146.488Z" fill="#282828"/>
<path d="M22.4775 157.16L47.9002 146.886L22.4775 157.16Z" fill="#282828"/>
<path d="M49.0898 146.4L74.4904 136.103L49.0898 146.4Z" fill="#282828"/>
<path d="M24.2178 160.696L47.9426 146.952L24.2178 160.696Z" fill="#282828"/>
<path d="M49.0239 146.311L72.7708 132.59L49.0239 146.311Z" fill="#282828"/>
<path d="M26.3794 163.943L47.9875 147.019L26.3794 163.943Z" fill="#282828"/>
<path d="M48.979 146.245L70.5651 129.343L48.979 146.245Z" fill="#282828"/>
<path d="M29.0034 166.838L48.0538 147.085L29.0034 166.838Z" fill="#282828"/>
<path d="M48.9355 146.179L67.9639 126.426L48.9355 146.179Z" fill="#282828"/>
<path d="M32.355 169.577L48.1642 147.173L32.355 169.577Z" fill="#282828"/>
<path d="M48.8687 146.112L64.6779 123.708L48.8687 146.112Z" fill="#282828"/>
<path d="M36.7656 172.14L48.2091 147.305L36.7656 172.14Z" fill="#282828"/>
<path d="M48.7373 146.046L60.2469 121.123L48.7373 146.046Z" fill="#282828"/>
<path d="M39.8081 173.554L48.0545 147.305L39.8081 173.554Z" fill="#282828"/>
<path d="M48.4277 146.157L56.608 119.952L48.4277 146.157Z" fill="#282828"/>
<path d="M44.1514 174.394L48.3848 147.305L44.1514 174.394Z" fill="#282828"/>
<path d="M48.5835 146.002L52.8169 118.869L48.5835 146.002Z" fill="#282828"/>
<path d="M51.8898 146.643C51.8942 147.321 51.6975 147.985 51.3246 148.552C50.9517 149.118 50.4195 149.56 49.7954 149.823C49.1714 150.085 48.4835 150.156 47.8191 150.027C47.1547 149.897 46.5437 149.573 46.0635 149.094C45.5833 148.616 45.2557 148.006 45.122 147.341C44.9883 146.676 45.0547 145.987 45.3127 145.36C45.5707 144.732 46.0087 144.196 46.5712 143.819C47.1337 143.442 47.7954 143.24 48.4722 143.24C49.3748 143.24 50.2408 143.598 50.8811 144.235C51.5214 144.873 51.884 145.738 51.8898 146.643Z" fill="black"/>
<path d="M138.742 104.397C138.572 104.253 138.433 104.077 138.333 103.878C138.232 103.68 138.172 103.463 138.155 103.241C138.139 103.019 138.167 102.796 138.237 102.585C138.307 102.373 138.419 102.178 138.565 102.011C138.565 102.011 138.742 101.812 139.006 101.26C139.34 100.516 139.512 99.7105 139.514 98.8954C139.5 97.8208 139.244 96.7632 138.764 95.8021C138.29 95.0117 137.606 94.3695 136.788 93.9479C135.97 93.5263 135.051 93.342 134.134 93.4158C133.129 93.398 132.135 93.6336 131.245 94.1008C130.584 94.5427 130.429 94.852 130.429 95.2497C130.437 95.455 130.482 95.6571 130.562 95.8463C130.643 96.0565 130.682 96.2808 130.676 96.5062C130.67 96.7315 130.619 96.9535 130.527 97.159C130.434 97.3646 130.302 97.5498 130.138 97.7037C129.974 97.8577 129.78 97.9773 129.569 98.0558C129.36 98.1373 129.136 98.1761 128.911 98.1701C128.686 98.1641 128.465 98.1134 128.259 98.0208C128.054 97.9283 127.87 97.7959 127.716 97.6312C127.562 97.4665 127.443 97.2729 127.365 97.0615C127.146 96.4895 127.027 95.8842 127.012 95.2718C127.21 91.4715 130.936 90.0574 134.112 90.0353C135.68 89.9687 137.235 90.3484 138.596 91.1305C139.958 91.9125 141.071 93.0649 141.807 94.4543C142.508 95.8694 142.877 97.4261 142.887 99.0059C142.912 100.933 142.283 102.811 141.101 104.331C140.944 104.517 140.748 104.668 140.527 104.771C140.306 104.874 140.066 104.927 139.822 104.927C139.415 104.932 139.021 104.782 138.72 104.508L138.742 104.397Z" fill="black"/>
<path d="M83.4653 154.751C83.4653 151.897 84.5966 149.161 86.6104 147.143C88.6241 145.125 91.3554 143.991 94.2032 143.991C97.0511 143.991 99.7823 145.125 101.796 147.143C103.81 149.161 104.941 151.897 104.941 154.751C104.941 157.605 103.81 160.342 101.796 162.36C99.7823 164.378 97.0511 165.512 94.2032 165.512C91.3554 165.512 88.6241 164.378 86.6104 162.36C84.5966 160.342 83.4653 157.605 83.4653 154.751ZM86.8609 154.751C86.8609 156.703 87.6345 158.574 89.0114 159.954C90.3884 161.334 92.2559 162.109 94.2032 162.109C96.1488 162.103 98.0129 161.326 99.3886 159.947C100.764 158.569 101.54 156.701 101.546 154.751C101.554 153.778 101.371 152.813 101.006 151.912C100.641 151.01 100.102 150.19 99.4199 149.498C98.7375 148.806 97.9253 148.256 97.0301 147.88C96.1348 147.503 95.1741 147.308 94.2032 147.305C92.2559 147.305 90.3884 148.08 89.0114 149.46C87.6345 150.84 86.8609 152.712 86.8609 154.663V154.751Z" fill="black"/>
<path d="M47.5913 148.852L47.922 146.842L85.4496 152.984L85.1189 154.995L47.5913 148.852Z" fill="black"/>
<path d="M111.555 157.226C111.555 157.596 111.482 157.963 111.34 158.305C111.197 158.647 110.989 158.957 110.727 159.218C110.464 159.479 110.153 159.685 109.811 159.825C109.469 159.964 109.102 160.035 108.733 160.032H96.2968C95.5559 160.026 94.847 159.729 94.3231 159.204C93.7992 158.679 93.5023 157.968 93.4966 157.226C93.4966 156.48 93.7909 155.764 94.3154 155.234C94.8399 154.704 95.5521 154.404 96.2968 154.398H108.644C109.393 154.398 110.111 154.696 110.64 155.226C111.169 155.756 111.467 156.476 111.467 157.226H111.555Z" fill="black"/>
<path d="M90.8286 143.174C91.971 145.676 92.658 148.362 92.8571 151.106C93.4084 155.194 94.8636 156.453 99.4719 156.387C104.411 156.387 112.018 156.387 112.018 156.387C112.018 156.387 115.546 154 109.328 150.377C106.481 148.64 103.728 146.752 101.081 144.721L100.707 141.45L90.8286 143.174Z" fill="#D8D2CA"/>
<path d="M62.9367 77.2415C61.261 81.2849 56.7188 89.7473 62.4075 93.0395C71.2272 98.1213 90.8288 147.305 90.8288 147.305L102.25 145.537C102.25 145.537 88.0065 91.2718 87.323 88.5762C86.7308 85.4893 86.6193 82.3291 86.9923 79.2079C86.9923 78.523 62.9367 77.2415 62.9367 77.2415Z" fill="#4C4C78"/>
<path d="M101.103 40.9619C96.9802 41.8015 78.2826 44.7181 61.5693 79.783C61.5693 79.783 84.0374 87.6047 87.3227 87.6047C88.5574 83.0752 105.425 64.7363 105.844 52.363C106.02 46.5962 101.103 40.9619 101.103 40.9619Z" fill="#CBCDDA"/>
<path d="M122.492 23.175C117.288 21.1201 107.057 18.4908 105.095 24.567C98.811 43.4583 110.409 48.1204 110.409 48.1204L115.238 48.96C111.357 40.7406 117.332 26.1578 122.492 23.175Z" fill="#F4CDBA"/>
<path d="M107.675 19.1542C109.178 18.0155 110.94 17.2682 112.802 16.979C114.665 16.6898 116.569 16.8678 118.346 17.4971C120.243 17.8331 122.022 18.6516 123.512 19.8742C125.002 21.0968 126.154 22.6824 126.857 24.4792C127.497 26.3281 127.528 28.3339 126.945 30.2018C126.005 29.7383 124.989 29.4465 123.947 29.3401C122.712 29.3401 121.301 28.2353 119.184 29.9808C118.055 30.955 117.126 32.1409 116.45 33.4719C116.45 33.4719 111.004 33.958 110.475 35.5488C109.946 37.1397 103.265 40.1667 103.265 40.1667C102.179 36.5131 101.513 32.7473 101.28 28.9424C101.545 19.795 107.322 19.6182 107.675 19.1542Z" fill="#E9A157"/>
<path d="M113.562 33.9798C112.966 33.0076 112.658 31.7703 111.357 32.3227C110.056 32.8751 107.63 37.3604 109.152 39.3268C110.673 41.2933 113.562 33.9798 113.562 33.9798Z" fill="#F4CDBA"/>
<path d="M119.274 30.0022C121.479 28.2567 122.802 29.3393 124.058 29.3393C125.139 29.4326 126.193 29.7247 127.167 30.201C127.744 28.331 127.705 26.3247 127.057 24.4784C126.331 22.6597 125.147 21.0605 123.621 19.8368C122.095 18.6132 120.278 17.8068 118.348 17.4963C116.657 16.9786 114.883 16.7911 113.122 16.944C115.327 18.4243 119.009 22.2026 115.57 33.449C117.069 33.0955 116.562 33.449 116.562 33.449C117.227 32.1299 118.149 30.9578 119.274 30.0022Z" fill="#CF8E4B"/>
<path d="M106.285 53.9978C106.417 50.4184 100.221 50.2637 98.678 47.7007C88.337 49.7334 73.6964 68.2491 68.1841 81.9923C74.9752 84.2018 85.3383 87.8254 87.3227 87.8254C88.5575 83.2296 105.888 66.349 106.285 53.9978Z" fill="#BABCC8"/>
<path d="M128.996 86.699C130.143 87.1409 136.008 89.1957 137.353 89.8586C138.698 90.5214 139.403 91.6704 139.558 94.2776C139.712 96.8848 139.558 98.6966 138.433 99.0281C137.855 99.1314 137.26 99.0818 136.707 98.8842C136.154 98.6866 135.662 98.3477 135.28 97.9012C134.795 97.3709 133.56 93.1508 132.436 92.9077C129.934 92.2012 127.533 91.1765 125.292 89.8586C124.829 89.0632 128.996 86.699 128.996 86.699Z" fill="#FFEADC"/>
<path d="M91.8872 49.5352C90.9749 50.9874 89.774 52.2359 88.3594 53.203C90.0131 58.4174 101.765 73.7073 105.866 78.9217C109.968 84.1362 124.961 92.6649 124.961 92.6649L131.024 86.4782C131.024 86.4782 114.289 72.8897 111.18 67.9404C108.071 62.9911 104.191 52.0541 102.14 49.248C98.502 44.0556 93.8496 46.3977 91.8872 49.5352Z" fill="#CBCDDA"/>
<path d="M98.5015 41.4256L102.228 40.4092C102.228 40.4092 104.763 48.1646 106.461 50.0868C106.45 51.3873 106.204 52.675 105.734 53.8872C104.83 53.7546 98.5015 41.4256 98.5015 41.4256Z" fill="#FFEADC"/>
<path d="M48.4721 178.239C56.0744 178.239 63.4215 175.49 69.1638 170.498C74.9062 165.505 78.6582 158.604 79.7307 151.062C80.8032 143.52 79.1242 135.844 75.002 129.443C70.8799 123.042 64.5915 118.346 57.2918 116.218L54.9766 119.797C59.2355 120.839 63.1844 122.885 66.4945 125.765C69.8045 128.645 72.38 132.277 74.0063 136.356C75.6326 140.436 76.2627 144.846 75.8441 149.219C75.4255 153.591 73.9704 157.801 71.5998 161.496C69.2293 165.192 66.0121 168.266 62.216 170.463C58.4198 172.661 54.1548 173.917 49.776 174.128C45.3972 174.34 41.0314 173.5 37.0422 171.678C33.053 169.856 29.5558 167.106 26.8419 163.656L24.5488 167.191C27.5 170.659 31.1678 173.443 35.2984 175.351C39.4291 177.258 43.924 178.244 48.4721 178.239Z" fill="#1BC98E"/>
</svg>
