<svg viewBox="0 0 166 175" fill="none" xmlns="http://www.w3.org/2000/svg">
<path d="M149.827 104.423C158.436 67.623 135.423 30.8488 98.4262 22.2853C61.4289 13.7217 24.4573 36.6116 15.8477 73.4113C7.2382 110.211 30.251 146.985 67.2483 155.549C104.246 164.112 141.217 141.222 149.827 104.423Z" fill="#F6F8FA"/>
<path d="M50.6969 149.622L103.392 103.738L91.6188 52.3036L65.9058 44.533L14.1079 87.6959C14.1079 88.1965 14.1079 88.6754 14.1079 89.1542C14.1036 101.59 17.5081 113.791 23.9551 124.445C30.402 135.099 39.6475 143.804 50.6969 149.622Z" fill="#E3E8EF"/>
<g style="mix-blend-mode:soft-light" opacity="0.6">
<path d="M11 88.9367C10.9971 79.5535 12.8527 70.2617 16.4608 61.592C20.0689 52.9223 25.3587 45.0445 32.0282 38.4086C38.6977 31.7727 46.6162 26.5087 55.3314 22.9172C64.0466 19.3258 73.3877 17.4773 82.8212 17.4773C92.2548 17.4773 101.596 19.3258 110.311 22.9172C119.026 26.5087 126.945 31.7727 133.614 38.4086C140.284 45.0445 145.574 52.9223 149.182 61.592C152.79 70.2617 154.645 79.5535 154.642 88.9367C154.642 98.318 152.785 107.607 149.175 116.275C145.566 124.942 140.276 132.817 133.606 139.451C126.937 146.084 119.02 151.346 110.306 154.936C101.592 158.526 92.2529 160.374 82.8212 160.374C63.773 160.374 45.505 152.848 32.036 139.451C18.5669 126.054 11 107.883 11 88.9367ZM14.0637 88.9367C14.0868 107.068 21.3384 124.45 34.2279 137.27C47.1174 150.091 64.5927 157.304 82.8212 157.327C101.05 157.304 118.525 150.091 131.415 137.27C144.304 124.45 151.556 107.068 151.579 88.9367C151.544 70.813 144.287 53.4423 131.399 40.631C118.511 27.8197 101.042 20.6129 82.8212 20.5899C64.6003 20.6129 47.1316 27.8197 34.2433 40.631C21.355 53.4423 14.0984 70.813 14.0637 88.9367Z" fill="none"/>
</g>
<path d="M60.6096 39.3963C57.5022 44.4896 52.9504 53.588 52.9504 53.588C52.9504 53.588 45.0943 40.5281 45.904 38.9609C47.1412 37.0767 48.2523 35.1134 49.2302 33.084C49.3615 31.9304 47.6328 28.9048 46.5605 29.1225C45.4882 29.3402 47.1076 32.0827 47.1076 32.0827L37.3695 33.3234C37.1482 35.5036 37.5582 37.7013 38.5512 39.6575C40.1268 41.9647 45.3788 62.5558 49.9962 64.9937C54.6135 67.4315 58.3556 63.7094 60.5221 61.4239C62.6885 59.1385 69.8444 49.8659 69.6912 47.2975C69.538 44.7291 60.6096 39.3963 60.6096 39.3963Z" fill="#FBC6B6"/>
<path d="M105.887 39.5484C108.994 44.6417 113.546 53.7401 113.546 53.7401C113.546 53.7401 121.402 40.6802 120.592 39.0913C119.344 37.2177 118.239 35.2531 117.288 33.2143C117.135 32.0825 118.863 29.0569 119.936 29.2746C121.008 29.4923 119.389 32.2566 119.389 32.2566L129.127 33.4755C129.359 35.6562 128.949 37.8571 127.945 39.8096C126.369 42.095 121.117 62.6861 116.522 65.1458C111.926 67.6054 108.141 63.8615 105.974 61.5543C103.808 59.247 96.6737 50.0181 96.805 47.4278C96.9363 44.8376 105.887 39.5484 105.887 39.5484Z" fill="#F7AB98"/>
<path d="M155 31H13V33H155V31Z" fill="#1BC98E"/>
<path d="M37.4789 32.2788C36.9099 31.5822 35.8157 29.9498 36.9099 29.5362C38.0041 29.1226 43.4749 27.6207 44.6347 29.1226C44.6347 30.7551 45.1162 31.2993 44.3502 31.9958C42.5777 33.5195 37.4789 32.2788 37.4789 32.2788Z" fill="#FBC6B6"/>
<path d="M129.039 32.4311C129.586 31.7346 130.68 30.0803 129.586 29.6885C128.491 29.2968 123.021 27.7513 121.861 29.275C121.861 30.9075 121.379 31.4516 122.145 32.1482C123.94 33.6501 129.039 32.4311 129.039 32.4311Z" fill="#F7AB98"/>
<path d="M65.4455 107.112C64.8997 112.427 63.9931 117.699 62.732 122.892C61.3971 128.269 60.7187 144.942 60.3905 158.742C60.3905 158.742 54.9853 165.664 56.342 166.404C59.0556 167.818 65.0954 165.664 65.5112 164.641C65.927 163.617 70.8507 146.422 71.8573 139.718C72.864 133.014 73.5642 126.244 74.921 122.892C76.2778 119.54 78.9694 106.763 78.9694 106.763L65.4455 107.112Z" fill="#FBC6B6"/>
<path d="M66.803 159.895C67.1312 162.573 68.6849 168.994 67.1312 169.647C62.7546 171.497 63.1485 173.782 60.5662 174C57.8872 174.267 55.1818 174.053 52.5788 173.369C50.3904 172.28 51.791 169.32 54.3513 166.469C55.9874 164.632 57.5285 162.714 58.9687 160.722C58.9687 160.722 57.3056 165.206 59.3407 165.293C62.9953 165.467 66.803 159.895 66.803 159.895Z" fill="#282828"/>
<path d="M100.941 107.112C101.487 112.427 102.393 117.699 103.654 122.892C105.011 128.269 105.668 145.094 106.018 158.894C106.018 158.894 109.213 161.833 108.885 164.858C108.556 167.884 101.225 165.424 100.875 164.423C100.525 163.422 95.5357 146.422 94.5291 139.718C93.5225 133.014 92.8222 126.244 91.4654 122.892C90.1087 119.54 87.417 106.763 87.417 106.763L100.941 107.112Z" fill="#F7AB98"/>
<path d="M99.5839 159.895C99.2556 162.573 97.7019 168.994 99.2556 169.647C103.632 171.497 102.363 172.65 104.792 173.39C107.739 174.221 110.861 174.221 113.808 173.39C115.996 172.302 115.055 168.841 112.014 166.49C110.123 164.916 108.625 162.927 107.637 160.679C107.637 160.679 109.147 165.228 107.112 165.315C103.392 165.467 99.5839 159.895 99.5839 159.895Z" fill="#282828"/>
<path d="M67.2179 78.641C65.6861 83.1902 60.2372 112.096 60.6529 115.122C64.7232 117.146 81.0701 117.146 82.0768 115.122C83.2701 111.351 84.2059 107.504 84.8778 103.607L84.8122 77.1826L67.2179 78.641Z" fill="#4C4C78"/>
<path d="M98.5332 78.075C100.043 82.6025 105.777 110.725 105.273 113.663C101.225 115.688 85.1625 117.429 84.1558 115.426C83.1492 113.424 82.9741 104.325 82.9741 104.325L83.5431 77.1826L98.5332 78.075Z" fill="#3F3F6B"/>
<path d="M90.2401 31.8215C93.7633 32.9752 105.055 35.0212 105.558 36.1748C106.062 37.3285 114.137 51.5637 114.137 51.5637C114.137 51.5637 105.558 63.4265 103.786 63.7094C102.013 63.9924 99.2561 55.7211 99.2561 55.7211C99.2561 55.7211 99.2561 60.4009 98.6652 66.6044C98.3107 72.0958 98.8052 77.6087 100.131 82.951C101.007 86.7384 82.1652 85.563 79.8018 85.563C80.9835 70.3264 79.8018 35.6307 82.2308 35.0647C84.9681 34.1567 87.6435 33.0733 90.2401 31.8215Z" fill="#BABCC8"/>
<path d="M76.0155 31.4731C72.4923 32.6485 61.2005 34.6728 60.6972 35.8264C60.1939 36.9801 52.1846 49.9747 52.1846 49.9747C52.1846 49.9747 60.1063 63.3828 61.8789 63.6875C62.4479 64.8629 66.9996 55.3727 66.9996 55.3727C66.9996 55.3727 66.9996 60.0525 67.5905 66.256C67.9439 71.7474 67.4495 77.2602 66.1243 82.6026C65.2489 86.39 81.6833 85.6499 84.0249 85.6499C83.8717 72.3941 84.0249 34.7163 84.0249 34.7163C81.2875 33.8083 78.6122 32.725 76.0155 31.4731Z" fill="#CBCDDA"/>
<path d="M76.6503 23.1366C76.6503 26.5322 75.3373 31.3426 76.1032 32.8227C76.8691 34.3028 88.2484 36.2182 89.4083 32.1044C89.7803 30.7766 89.4083 32.1044 87.8764 22.2659C87.7014 20.9599 76.6503 23.1366 76.6503 23.1366Z" fill="#FBC6B6"/>
<path d="M89.4299 32.1046C89.78 30.7768 89.4299 31.691 87.898 21.9396C87.7011 20.6336 76.6719 23.6809 76.6719 23.6809C76.7593 24.5567 76.7593 25.4389 76.6719 26.3147C78.0866 27.7051 79.684 28.8985 81.4206 29.8626C82.6242 30.385 83.2807 32.9099 83.9372 34.5642C85.7972 34.3683 88.9484 33.9112 89.4299 32.1046Z" fill="#F7AB98"/>
<path d="M90.2174 16.9114C90.4581 23.8114 85.2499 28.6871 82.602 28.8612C80.6544 28.9918 74.352 24.3338 74.1113 17.4121C73.8706 10.4903 71.3759 4.59159 81.2453 3.89506C91.1146 3.19854 89.9986 9.98968 90.2174 16.9114Z" fill="#FBC6B6"/>
<path d="M74.2866 13.7117C73.3237 13.7117 71.9232 14.8218 73.2362 18.3697C74.5492 21.9176 75.6434 19.8934 75.6434 19.8934L74.2866 13.7117Z" fill="#FBC6B6"/>
<path d="M90.3274 17.0202C90.1086 10.3379 90.962 3.76443 82.2743 3.96033C81.3971 8.62438 81.2128 13.3912 81.7273 18.1085C81.7727 21.7643 82.161 25.4078 82.8871 28.9918C85.5787 28.5782 90.5462 23.7678 90.3274 17.0202Z" fill="#F7AB98"/>
<path d="M89.6051 13.2329C90.568 13.2329 92.0779 14.0383 91.2245 17.7168C90.371 21.3953 89.0361 19.5452 89.0361 19.5452L89.6051 13.2329Z" fill="#F7AB98"/>
<path d="M87.8326 4.00391C88.7736 4.13451 90.8744 5.09223 91.1808 6.68118C91.3676 9.08707 91.2574 11.5067 90.8525 13.8859L89.4301 15.2354C89.4301 15.2354 89.9772 9.90262 88.2484 7.87834C87.497 7.21399 86.571 6.77611 85.5786 6.61588L87.8326 4.00391Z" fill="black"/>
<path d="M88.2486 4.09097C87.0012 5.87582 87.1763 7.22534 84.4846 7.05121C82.4964 6.82077 80.4831 6.9312 78.5323 7.37771C78.073 7.57094 77.6655 7.86845 77.3426 8.24642C77.0196 8.62439 76.79 9.07232 76.6723 9.55435L76.0158 7.37771C75.6937 8.12318 75.4659 8.90548 75.3374 9.70672C75.1623 10.9474 75.1623 15.5837 75.1623 15.5837L73.3679 14.06C73.3679 14.06 71.9455 7.22534 73.7399 5.09222C75.5343 2.95911 76.6504 3.39444 76.6504 3.39444C76.6504 3.39444 77.1537 0.521263 82.1431 1.00013C87.1325 1.47899 88.2486 4.09097 88.2486 4.09097Z" fill="#393C40"/>
<path d="M139 44.2495C139 44.6128 138.948 44.9726 138.847 45.308C138.746 45.6434 138.597 45.9477 138.41 46.2035C138.224 46.4592 138.002 46.6612 137.758 46.7979C137.515 46.9346 137.254 47.0033 136.991 46.9999C136.729 46.9999 136.47 46.9287 136.229 46.7905C135.987 46.6523 135.768 46.4497 135.583 46.1943C135.398 45.9389 135.252 45.6357 135.152 45.302C135.051 44.9683 135 44.6107 135 44.2495V18.7505C135 18.3893 135.051 18.0317 135.152 17.698C135.252 17.3643 135.398 17.0611 135.583 16.8057C135.768 16.5503 135.987 16.3477 136.229 16.2095C136.47 16.0713 136.729 16.0001 136.991 16.0001C137.254 15.9967 137.515 16.0654 137.758 16.2021C138.002 16.3388 138.224 16.5408 138.41 16.7965C138.597 17.0523 138.746 17.3566 138.847 17.692C138.948 18.0274 139 18.3872 139 18.7505V44.2495Z" fill="#1BC98E"/>
<path d="M144 44.2495C144 44.6128 143.948 44.9726 143.847 45.308C143.746 45.6434 143.597 45.9477 143.41 46.2035C143.224 46.4592 143.002 46.6612 142.758 46.7979C142.515 46.9346 142.254 47.0033 141.991 46.9999C141.729 46.9999 141.47 46.9287 141.229 46.7905C140.987 46.6523 140.768 46.4497 140.583 46.1943C140.398 45.9389 140.252 45.6357 140.152 45.302C140.051 44.9683 140 44.6107 140 44.2495V18.7505C140 18.3893 140.051 18.0317 140.152 17.698C140.252 17.3643 140.398 17.0611 140.583 16.8057C140.768 16.5503 140.987 16.3477 141.229 16.2095C141.47 16.0713 141.729 16.0001 141.991 16.0001C142.254 15.9967 142.515 16.0654 142.758 16.2021C143.002 16.3388 143.224 16.5408 143.41 16.7965C143.597 17.0523 143.746 17.3566 143.847 17.692C143.948 18.0274 144 18.3872 144 18.7505V44.2495Z" fill="#1BC98E"/>
<path d="M148.482 39.9573C148.482 40.4192 148.297 40.8621 147.969 41.1886C147.641 41.5152 147.195 41.6987 146.731 41.6987C146.499 41.7015 146.269 41.6586 146.054 41.5724C145.839 41.4862 145.644 41.3584 145.479 41.1964C145.314 41.0344 145.183 40.8415 145.094 40.6288C145.004 40.4161 144.958 40.1879 144.958 39.9573V23.7631C144.958 23.2955 145.145 22.847 145.478 22.5164C145.81 22.1858 146.261 22 146.731 22C146.963 22 147.192 22.0457 147.406 22.1346C147.62 22.2235 147.814 22.3537 147.977 22.5177C148.14 22.6817 148.268 22.8762 148.355 23.09C148.441 23.3038 148.485 23.5326 148.482 23.7631V39.9573Z" fill="#1BC98E"/>
<path d="M29 44.2496C29 44.979 29.2107 45.6786 29.5858 46.1944C29.9609 46.7102 30.4696 47 31 47C31.5304 47 32.0391 46.7102 32.4142 46.1944C32.7893 45.6786 33 44.979 33 44.2496V18.7505C33 18.3872 32.9477 18.0274 32.846 17.692C32.7443 17.3566 32.5953 17.0523 32.4076 16.7966C32.2199 16.5408 31.9972 16.3388 31.7524 16.2021C31.5076 16.0654 31.2455 15.9967 30.9813 16.0001C30.4541 16.0069 29.9502 16.2997 29.5792 16.8147C29.2081 17.3298 29 18.0255 29 18.7505V44.2496Z" fill="#1BC98E"/>
<path d="M24 44.2496C24 44.979 24.2107 45.6786 24.5858 46.1944C24.9609 46.7102 25.4696 47 26 47C26.5304 47 27.0391 46.7102 27.4142 46.1944C27.7893 45.6786 28 44.979 28 44.2496V18.7505C28 18.3872 27.9477 18.0274 27.846 17.692C27.7443 17.3566 27.5953 17.0523 27.4076 16.7966C27.2199 16.5408 26.9972 16.3388 26.7524 16.2021C26.5076 16.0654 26.2455 15.9967 25.9813 16.0001C25.4541 16.0069 24.9502 16.2997 24.5792 16.8147C24.2081 17.3298 24 18.0255 24 18.7505V44.2496Z" fill="#1BC98E"/>
<path d="M19.3711 39.9573C19.3711 40.1879 19.4171 40.4161 19.5064 40.6288C19.5958 40.8415 19.7267 41.0344 19.8916 41.1964C20.0565 41.3584 20.252 41.4862 20.467 41.5724C20.6819 41.6586 20.9119 41.7015 21.1436 41.6987C21.608 41.6987 22.0532 41.5152 22.3816 41.1886C22.7099 40.8621 22.8943 40.4192 22.8943 39.9573V23.7631C22.8972 23.5326 22.8541 23.3038 22.7674 23.09C22.6807 22.8762 22.5522 22.6817 22.3894 22.5177C22.2265 22.3537 22.0325 22.2235 21.8187 22.1346C21.6049 22.0457 21.3754 22 21.1436 22C20.6735 22 20.2227 22.1858 19.8903 22.5164C19.5578 22.847 19.3711 23.2955 19.3711 23.7631V39.9573Z" fill="#1BC98E"/>
</svg>
